{
	"asset":{
		"generator":"Khronos glTF Blender I/O v3.5.30",
		"version":"2.0"
	},
	"scene":0,
	"scenes":[
		{
			"name":"Scene",
			"nodes":[
				0,
				1,
				2,
				3,
				4,
				5,
				6,
				7,
				8,
				9,
				10,
				11,
				12,
				13,
				14,
				15,
				16,
				17,
				18,
				19,
				20,
				21,
				22,
				23,
				24
			]
		}
	],
	"nodes":[
		{
			"name":"ground_irradiance",
			"scale":[
				11.199999809265137,
				5.599999904632568,
				22.399999618530273
			],
			"translation":[
				0,
				0.5399999022483826,
				1.4375
			]
		},
		{
			"name":"top_irradiance",
			"scale":[
				5.039999961853027,
				3.3600001335144043,
				16.282176971435547
			],
			"translation":[
				0,
				9.5,
				1.4375
			]
		},
		{
			"name":"ground_reflection",
			"scale":[
				5.599999904632568,
				2.799999952316284,
				11.199999809265137
			],
			"translation":[
				0,
				0.5399999022483826,
				1.4375
			]
		},
		{
			"name":"env",
			"scale":[
				5.599999904632568,
				2.799999952316284,
				11.199999809265137
			],
			"translation":[
				0,
				0.5399999022483826,
				1.4375
			]
		},
		{
			"mesh":0,
			"name":"Cube",
			"scale":[
				5.599999904632568,
				5.599999904632568,
				5.599999904632568
			],
			"translation":[
				-5.039999961853027,
				-5.059999942779541,
				1.4375
			]
		},
		{
			"mesh":1,
			"name":"Cube.001",
			"scale":[
				5.599999904632568,
				5.599999904632568,
				5.599999904632568
			],
			"translation":[
				-5.039999961853027,
				-5.059999942779541,
				-9.762499809265137
			]
		},
		{
			"mesh":2,
			"name":"Cube.002",
			"scale":[
				5.599999904632568,
				5.599999904632568,
				5.599999904632568
			],
			"translation":[
				-5.039999961853027,
				-5.059999942779541,
				12.637499809265137
			]
		},
		{
			"mesh":3,
			"name":"Cube.003",
			"scale":[
				5.599999904632568,
				5.599999904632568,
				5.599999904632568
			],
			"translation":[
				5.039999008178711,
				-5.059999942779541,
				1.4375
			]
		},
		{
			"mesh":4,
			"name":"Cube.004",
			"scale":[
				5.599999904632568,
				5.599999904632568,
				5.599999904632568
			],
			"translation":[
				5.039999008178711,
				-5.059999942779541,
				-9.762499809265137
			]
		},
		{
			"mesh":5,
			"name":"Cube.005",
			"scale":[
				5.599999904632568,
				5.599999904632568,
				5.599999904632568
			],
			"translation":[
				5.039999008178711,
				-5.059999942779541,
				12.637499809265137
			]
		},
		{
			"mesh":6,
			"name":"ceiling",
			"rotation":[
				0,
				0,
				-1,
				7.549790126404332e-08
			],
			"scale":[
				5.599999904632568,
				5.599999904632568,
				5.599999904632568
			],
			"translation":[
				0,
				6.139999866485596,
				1.4375
			]
		},
		{
			"mesh":7,
			"name":"floor",
			"scale":[
				5.599999904632568,
				5.599999904632568,
				5.599999904632568
			],
			"translation":[
				0,
				-5.059999942779541,
				1.4375
			]
		},
		{
			"name":"sun_placeholder",
			"rotation":[
				-0.25857269763946533,
				-0.011289525777101517,
				-0.04213309660553932,
				0.9650065898895264
			],
			"scale":[
				5.600000858306885,
				5.600000381469727,
				5.59999942779541
			],
			"translation":[
				0,
				39.73999786376953,
				-26.5625
			]
		},
		{
			"mesh":8,
			"name":"wall_top",
			"rotation":[
				0,
				0,
				-1,
				7.549790126404332e-08
			],
			"scale":[
				5.599999904632568,
				5.599999904632568,
				5.599999904632568
			],
			"translation":[
				0,
				6.139999866485596,
				1.4375
			]
		},
		{
			"mesh":9,
			"name":"walls",
			"scale":[
				5.599999904632568,
				5.599999904632568,
				5.599999904632568
			],
			"translation":[
				0,
				-5.059999942779541,
				1.4375
			]
		},
		{
			"mesh":10,
			"name":"Suzanne",
			"translation":[
				0,
				0,
				-5
			]
		},
		{
			"mesh":11,
			"name":"Suzanne metal",
			"translation":[
				3.299999952316284,
				0,
				-5
			]
		},
		{
			"mesh":12,
			"name":"Suzanne shine",
			"translation":[
				-3.299999952316284,
				0,
				-5
			]
		},
		{
			"mesh":10,
			"name":"Suzanne.001",
			"translation":[
				0,
				0,
				-19
			]
		},
		{
			"mesh":11,
			"name":"Suzanne metal.001",
			"rotation":[
				0,
				-0.4226182997226715,
				0,
				0.9063078165054321
			],
			"translation":[
				9.300000190734863,
				0,
				-19
			]
		},
		{
			"mesh":10,
			"name":"Suzanne.002",
			"translation":[
				0,
				10,
				-13
			]
		},
		{
			"mesh":10,
			"name":"Suzanne.003",
			"rotation":[
				0,
				-1,
				0,
				7.549790126404332e-08
			],
			"translation":[
				0,
				10,
				16
			]
		},
		{
			"mesh":10,
			"name":"Suzanne.004",
			"rotation":[
				0,
				0.3420201539993286,
				0,
				0.9396927356719971
			],
			"translation":[
				-9,
				-3,
				-19
			]
		},
		{
			"mesh":10,
			"name":"Suzanne.005",
			"rotation":[
				0,
				0.3420201539993286,
				0,
				0.9396927356719971
			],
			"translation":[
				-9,
				4,
				-19
			]
		},
		{
			"mesh":13,
			"name":"env_floor",
			"scale":[
				54.58538818359375,
				54.58538818359375,
				54.58538818359375
			],
			"translation":[
				0,
				-5.109637260437012,
				0
			]
		}
	],
	"materials":[
		{
			"name":"column",
			"pbrMetallicRoughness":{
				"baseColorTexture":{
					"index":0
				},
				"metallicFactor":0,
				"roughnessFactor":0.5
			}
		},
		{
			"name":"ceiling",
			"pbrMetallicRoughness":{
				"baseColorTexture":{
					"index":1
				},
				"metallicFactor":0,
				"roughnessFactor":0.5
			}
		},
		{
			"name":"floor",
			"pbrMetallicRoughness":{
				"baseColorTexture":{
					"index":2
				},
				"metallicFactor":0,
				"roughnessFactor":0.5
			}
		},
		{
			"name":"walls",
			"pbrMetallicRoughness":{
				"baseColorTexture":{
					"index":3
				},
				"metallicFactor":0,
				"roughnessFactor":0.5
			}
		},
		{
			"doubleSided":true,
			"name":"Suzanne rough",
			"pbrMetallicRoughness":{
				"baseColorFactor":[
					0.800000011920929,
					0.800000011920929,
					0.800000011920929,
					1
				],
				"metallicFactor":0,
				"roughnessFactor":0.7392637729644775
			}
		},
		{
			"doubleSided":true,
			"name":"Suzanne metal",
			"pbrMetallicRoughness":{
				"baseColorFactor":[
					0.800000011920929,
					0.800000011920929,
					0.800000011920929,
					1
				],
				"metallicFactor":0.7955010533332825,
				"roughnessFactor":0.08486706018447876
			}
		},
		{
			"doubleSided":true,
			"name":"Suzanne shine",
			"pbrMetallicRoughness":{
				"baseColorFactor":[
					0.800000011920929,
					0.800000011920929,
					0.800000011920929,
					1
				],
				"metallicFactor":0,
				"roughnessFactor":0
			}
		}
	],
	"meshes":[
		{
			"name":"Cube.005",
			"primitives":[
				{
					"attributes":{
						"POSITION":0,
						"TEXCOORD_0":1,
						"TEXCOORD_1":2,
						"NORMAL":3
					},
					"indices":4,
					"material":0
				}
			]
		},
		{
			"name":"Cube.006",
			"primitives":[
				{
					"attributes":{
						"POSITION":5,
						"TEXCOORD_0":6,
						"TEXCOORD_1":7,
						"NORMAL":8
					},
					"indices":4,
					"material":0
				}
			]
		},
		{
			"name":"Cube.007",
			"primitives":[
				{
					"attributes":{
						"POSITION":9,
						"TEXCOORD_0":10,
						"TEXCOORD_1":11,
						"NORMAL":12
					},
					"indices":4,
					"material":0
				}
			]
		},
		{
			"name":"Cube.008",
			"primitives":[
				{
					"attributes":{
						"POSITION":13,
						"TEXCOORD_0":14,
						"TEXCOORD_1":15,
						"NORMAL":16
					},
					"indices":4,
					"material":0
				}
			]
		},
		{
			"name":"Cube.009",
			"primitives":[
				{
					"attributes":{
						"POSITION":17,
						"TEXCOORD_0":18,
						"TEXCOORD_1":19,
						"NORMAL":20
					},
					"indices":4,
					"material":0
				}
			]
		},
		{
			"name":"Cube.010",
			"primitives":[
				{
					"attributes":{
						"POSITION":21,
						"TEXCOORD_0":22,
						"TEXCOORD_1":23,
						"NORMAL":24
					},
					"indices":4,
					"material":0
				}
			]
		},
		{
			"name":"Cube.002",
			"primitives":[
				{
					"attributes":{
						"POSITION":25,
						"TEXCOORD_0":26,
						"TEXCOORD_1":27,
						"NORMAL":28
					},
					"indices":29,
					"material":1
				}
			]
		},
		{
			"name":"Cube.001",
			"primitives":[
				{
					"attributes":{
						"POSITION":30,
						"TEXCOORD_0":31,
						"TEXCOORD_1":32,
						"NORMAL":33
					},
					"indices":34,
					"material":2
				}
			]
		},
		{
			"name":"Cube.004",
			"primitives":[
				{
					"attributes":{
						"POSITION":35,
						"TEXCOORD_0":36,
						"TEXCOORD_1":37,
						"NORMAL":38
					},
					"indices":39,
					"material":3
				}
			]
		},
		{
			"name":"Cube",
			"primitives":[
				{
					"attributes":{
						"POSITION":40,
						"TEXCOORD_0":41,
						"TEXCOORD_1":42,
						"NORMAL":43
					},
					"indices":44,
					"material":3
				}
			]
		},
		{
			"name":"Suzanne",
			"primitives":[
				{
					"attributes":{
						"POSITION":45,
						"TEXCOORD_0":46,
						"NORMAL":47
					},
					"indices":48,
					"material":4
				}
			]
		},
		{
			"name":"Suzanne.001",
			"primitives":[
				{
					"attributes":{
						"POSITION":49,
						"TEXCOORD_0":50,
						"NORMAL":51
					},
					"indices":48,
					"material":5
				}
			]
		},
		{
			"name":"Suzanne.002",
			"primitives":[
				{
					"attributes":{
						"POSITION":52,
						"TEXCOORD_0":53,
						"NORMAL":54
					},
					"indices":48,
					"material":6
				}
			]
		},
		{
			"name":"Cube.003",
			"primitives":[
				{
					"attributes":{
						"POSITION":55,
						"TEXCOORD_0":56,
						"NORMAL":57
					},
					"indices":34,
					"material":2
				}
			]
		}
	],
	"textures":[
		{
			"sampler":0,
			"source":0
		},
		{
			"sampler":0,
			"source":1
		},
		{
			"sampler":0,
			"source":2
		},
		{
			"sampler":0,
			"source":3
		}
	],
	"images":[
		{
			"mimeType":"image/png",
			"name":"column_1stfloor_BaseColor",
			"uri":"textures-small/column_1stfloor_BaseColor.png"
		},
		{
			"mimeType":"image/png",
			"name":"ceiling_plaster_01_BaseColor",
			"uri":"textures-small/ceiling_plaster_01_BaseColor.png"
		},
		{
			"mimeType":"image/png",
			"name":"floor_tiles_01_BaseColor",
			"uri":"textures-small/floor_tiles_01_BaseColor.png"
		},
		{
			"mimeType":"image/png",
			"name":"brickwall_01_BaseColor",
			"uri":"textures-small/brickwall_01_BaseColor.png"
		}
	],
	"accessors":[
		{
			"bufferView":0,
			"componentType":5126,
			"count":76,
			"max":[
				0.18000000715255737,
				1.0899999141693115,
				0.18000000715255737
			],
			"min":[
				-0.18000000715255737,
				-3.725290298461914e-09,
				-0.18000000715255737
			],
			"type":"VEC3"
		},
		{
			"bufferView":1,
			"componentType":5126,
			"count":76,
			"type":"VEC2"
		},
		{
			"bufferView":2,
			"componentType":5126,
			"count":76,
			"type":"VEC2"
		},
		{
			"bufferView":3,
			"componentType":5126,
			"count":76,
			"type":"VEC3"
		},
		{
			"bufferView":4,
			"componentType":5123,
			"count":132,
			"type":"SCALAR"
		},
		{
			"bufferView":5,
			"componentType":5126,
			"count":76,
			"max":[
				0.18000000715255737,
				1.0899999141693115,
				0.18000000715255737
			],
			"min":[
				-0.18000000715255737,
				-3.725290298461914e-09,
				-0.18000000715255737
			],
			"type":"VEC3"
		},
		{
			"bufferView":6,
			"componentType":5126,
			"count":76,
			"type":"VEC2"
		},
		{
			"bufferView":7,
			"componentType":5126,
			"count":76,
			"type":"VEC2"
		},
		{
			"bufferView":8,
			"componentType":5126,
			"count":76,
			"type":"VEC3"
		},
		{
			"bufferView":9,
			"componentType":5126,
			"count":76,
			"max":[
				0.18000000715255737,
				1.0899999141693115,
				0.18000000715255737
			],
			"min":[
				-0.18000000715255737,
				-3.725290298461914e-09,
				-0.18000000715255737
			],
			"type":"VEC3"
		},
		{
			"bufferView":10,
			"componentType":5126,
			"count":76,
			"type":"VEC2"
		},
		{
			"bufferView":11,
			"componentType":5126,
			"count":76,
			"type":"VEC2"
		},
		{
			"bufferView":12,
			"componentType":5126,
			"count":76,
			"type":"VEC3"
		},
		{
			"bufferView":13,
			"componentType":5126,
			"count":76,
			"max":[
				0.18000000715255737,
				1.0899999141693115,
				0.18000000715255737
			],
			"min":[
				-0.18000000715255737,
				-3.725290298461914e-09,
				-0.18000000715255737
			],
			"type":"VEC3"
		},
		{
			"bufferView":14,
			"componentType":5126,
			"count":76,
			"type":"VEC2"
		},
		{
			"bufferView":15,
			"componentType":5126,
			"count":76,
			"type":"VEC2"
		},
		{
			"bufferView":16,
			"componentType":5126,
			"count":76,
			"type":"VEC3"
		},
		{
			"bufferView":17,
			"componentType":5126,
			"count":76,
			"max":[
				0.18000000715255737,
				1.0899999141693115,
				0.18000000715255737
			],
			"min":[
				-0.18000000715255737,
				-3.725290298461914e-09,
				-0.18000000715255737
			],
			"type":"VEC3"
		},
		{
			"bufferView":18,
			"componentType":5126,
			"count":76,
			"type":"VEC2"
		},
		{
			"bufferView":19,
			"componentType":5126,
			"count":76,
			"type":"VEC2"
		},
		{
			"bufferView":20,
			"componentType":5126,
			"count":76,
			"type":"VEC3"
		},
		{
			"bufferView":21,
			"componentType":5126,
			"count":76,
			"max":[
				0.18000000715255737,
				1.0899999141693115,
				0.18000000715255737
			],
			"min":[
				-0.18000000715255737,
				-3.725290298461914e-09,
				-0.18000000715255737
			],
			"type":"VEC3"
		},
		{
			"bufferView":22,
			"componentType":5126,
			"count":76,
			"type":"VEC2"
		},
		{
			"bufferView":23,
			"componentType":5126,
			"count":76,
			"type":"VEC2"
		},
		{
			"bufferView":24,
			"componentType":5126,
			"count":76,
			"type":"VEC3"
		},
		{
			"bufferView":25,
			"componentType":5126,
			"count":8,
			"max":[
				2,
				0,
				4
			],
			"min":[
				-2,
				0,
				-4
			],
			"type":"VEC3"
		},
		{
			"bufferView":26,
			"componentType":5126,
			"count":8,
			"type":"VEC2"
		},
		{
			"bufferView":27,
			"componentType":5126,
			"count":8,
			"type":"VEC2"
		},
		{
			"bufferView":28,
			"componentType":5126,
			"count":8,
			"type":"VEC3"
		},
		{
			"bufferView":29,
			"componentType":5123,
			"count":24,
			"type":"SCALAR"
		},
		{
			"bufferView":30,
			"componentType":5126,
			"count":4,
			"max":[
				2,
				0,
				4
			],
			"min":[
				-2,
				0,
				-4
			],
			"type":"VEC3"
		},
		{
			"bufferView":31,
			"componentType":5126,
			"count":4,
			"type":"VEC2"
		},
		{
			"bufferView":32,
			"componentType":5126,
			"count":4,
			"type":"VEC2"
		},
		{
			"bufferView":33,
			"componentType":5126,
			"count":4,
			"type":"VEC3"
		},
		{
			"bufferView":34,
			"componentType":5123,
			"count":6,
			"type":"SCALAR"
		},
		{
			"bufferView":35,
			"componentType":5126,
			"count":16,
			"max":[
				0.9148268699645996,
				0,
				2.9148268699645996
			],
			"min":[
				-0.9148270487785339,
				-1.2231422662734985,
				-2.9148271083831787
			],
			"type":"VEC3"
		},
		{
			"bufferView":36,
			"componentType":5126,
			"count":16,
			"type":"VEC2"
		},
		{
			"bufferView":37,
			"componentType":5126,
			"count":16,
			"type":"VEC2"
		},
		{
			"bufferView":38,
			"componentType":5126,
			"count":16,
			"type":"VEC3"
		},
		{
			"bufferView":39,
			"componentType":5123,
			"count":24,
			"type":"SCALAR"
		},
		{
			"bufferView":40,
			"componentType":5126,
			"count":16,
			"max":[
				2,
				2,
				4
			],
			"min":[
				-2,
				0,
				-4
			],
			"type":"VEC3"
		},
		{
			"bufferView":41,
			"componentType":5126,
			"count":16,
			"type":"VEC2"
		},
		{
			"bufferView":42,
			"componentType":5126,
			"count":16,
			"type":"VEC2"
		},
		{
			"bufferView":43,
			"componentType":5126,
			"count":16,
			"type":"VEC3"
		},
		{
			"bufferView":44,
			"componentType":5123,
			"count":24,
			"type":"SCALAR"
		},
		{
			"bufferView":45,
			"componentType":5126,
			"count":556,
			"max":[
				1.3671875,
				0.984375,
				0.8515625
			],
			"min":[
				-1.3671875,
				-0.984375,
				-0.8515625
			],
			"type":"VEC3"
		},
		{
			"bufferView":46,
			"componentType":5126,
			"count":556,
			"type":"VEC2"
		},
		{
			"bufferView":47,
			"componentType":5126,
			"count":556,
			"type":"VEC3"
		},
		{
			"bufferView":48,
			"componentType":5123,
			"count":2904,
			"type":"SCALAR"
		},
		{
			"bufferView":49,
			"componentType":5126,
			"count":556,
			"max":[
				1.3671875,
				0.984375,
				0.8515625
			],
			"min":[
				-1.3671875,
				-0.984375,
				-0.8515625
			],
			"type":"VEC3"
		},
		{
			"bufferView":50,
			"componentType":5126,
			"count":556,
			"type":"VEC2"
		},
		{
			"bufferView":51,
			"componentType":5126,
			"count":556,
			"type":"VEC3"
		},
		{
			"bufferView":52,
			"componentType":5126,
			"count":556,
			"max":[
				1.3671875,
				0.984375,
				0.8515625
			],
			"min":[
				-1.3671875,
				-0.984375,
				-0.8515625
			],
			"type":"VEC3"
		},
		{
			"bufferView":53,
			"componentType":5126,
			"count":556,
			"type":"VEC2"
		},
		{
			"bufferView":54,
			"componentType":5126,
			"count":556,
			"type":"VEC3"
		},
		{
			"bufferView":55,
			"componentType":5126,
			"count":4,
			"max":[
				2,
				0,
				4
			],
			"min":[
				-2,
				0,
				-4
			],
			"type":"VEC3"
		},
		{
			"bufferView":56,
			"componentType":5126,
			"count":4,
			"type":"VEC2"
		},
		{
			"bufferView":57,
			"componentType":5126,
			"count":4,
			"type":"VEC3"
		}
	],
	"bufferViews":[
		{
			"buffer":0,
			"byteLength":912,
			"byteOffset":0,
			"target":34962
		},
		{
			"buffer":0,
			"byteLength":608,
			"byteOffset":912,
			"target":34962
		},
		{
			"buffer":0,
			"byteLength":608,
			"byteOffset":1520,
			"target":34962
		},
		{
			"buffer":0,
			"byteLength":912,
			"byteOffset":2128,
			"target":34962
		},
		{
			"buffer":0,
			"byteLength":264,
			"byteOffset":3040,
			"target":34963
		},
		{
			"buffer":0,
			"byteLength":912,
			"byteOffset":3304,
			"target":34962
		},
		{
			"buffer":0,
			"byteLength":608,
			"byteOffset":4216,
			"target":34962
		},
		{
			"buffer":0,
			"byteLength":608,
			"byteOffset":4824,
			"target":34962
		},
		{
			"buffer":0,
			"byteLength":912,
			"byteOffset":5432,
			"target":34962
		},
		{
			"buffer":0,
			"byteLength":912,
			"byteOffset":6344,
			"target":34962
		},
		{
			"buffer":0,
			"byteLength":608,
			"byteOffset":7256,
			"target":34962
		},
		{
			"buffer":0,
			"byteLength":608,
			"byteOffset":7864,
			"target":34962
		},
		{
			"buffer":0,
			"byteLength":912,
			"byteOffset":8472,
			"target":34962
		},
		{
			"buffer":0,
			"byteLength":912,
			"byteOffset":9384,
			"target":34962
		},
		{
			"buffer":0,
			"byteLength":608,
			"byteOffset":10296,
			"target":34962
		},
		{
			"buffer":0,
			"byteLength":608,
			"byteOffset":10904,
			"target":34962
		},
		{
			"buffer":0,
			"byteLength":912,
			"byteOffset":11512,
			"target":34962
		},
		{
			"buffer":0,
			"byteLength":912,
			"byteOffset":12424,
			"target":34962
		},
		{
			"buffer":0,
			"byteLength":608,
			"byteOffset":13336,
			"target":34962
		},
		{
			"buffer":0,
			"byteLength":608,
			"byteOffset":13944,
			"target":34962
		},
		{
			"buffer":0,
			"byteLength":912,
			"byteOffset":14552,
			"target":34962
		},
		{
			"buffer":0,
			"byteLength":912,
			"byteOffset":15464,
			"target":34962
		},
		{
			"buffer":0,
			"byteLength":608,
			"byteOffset":16376,
			"target":34962
		},
		{
			"buffer":0,
			"byteLength":608,
			"byteOffset":16984,
			"target":34962
		},
		{
			"buffer":0,
			"byteLength":912,
			"byteOffset":17592,
			"target":34962
		},
		{
			"buffer":0,
			"byteLength":96,
			"byteOffset":18504,
			"target":34962
		},
		{
			"buffer":0,
			"byteLength":64,
			"byteOffset":18600,
			"target":34962
		},
		{
			"buffer":0,
			"byteLength":64,
			"byteOffset":18664,
			"target":34962
		},
		{
			"buffer":0,
			"byteLength":96,
			"byteOffset":18728,
			"target":34962
		},
		{
			"buffer":0,
			"byteLength":48,
			"byteOffset":18824,
			"target":34963
		},
		{
			"buffer":0,
			"byteLength":48,
			"byteOffset":18872,
			"target":34962
		},
		{
			"buffer":0,
			"byteLength":32,
			"byteOffset":18920,
			"target":34962
		},
		{
			"buffer":0,
			"byteLength":32,
			"byteOffset":18952,
			"target":34962
		},
		{
			"buffer":0,
			"byteLength":48,
			"byteOffset":18984,
			"target":34962
		},
		{
			"buffer":0,
			"byteLength":12,
			"byteOffset":19032,
			"target":34963
		},
		{
			"buffer":0,
			"byteLength":192,
			"byteOffset":19044,
			"target":34962
		},
		{
			"buffer":0,
			"byteLength":128,
			"byteOffset":19236,
			"target":34962
		},
		{
			"buffer":0,
			"byteLength":128,
			"byteOffset":19364,
			"target":34962
		},
		{
			"buffer":0,
			"byteLength":192,
			"byteOffset":19492,
			"target":34962
		},
		{
			"buffer":0,
			"byteLength":48,
			"byteOffset":19684,
			"target":34963
		},
		{
			"buffer":0,
			"byteLength":192,
			"byteOffset":19732,
			"target":34962
		},
		{
			"buffer":0,
			"byteLength":128,
			"byteOffset":19924,
			"target":34962
		},
		{
			"buffer":0,
			"byteLength":128,
			"byteOffset":20052,
			"target":34962
		},
		{
			"buffer":0,
			"byteLength":192,
			"byteOffset":20180,
			"target":34962
		},
		{
			"buffer":0,
			"byteLength":48,
			"byteOffset":20372,
			"target":34963
		},
		{
			"buffer":0,
			"byteLength":6672,
			"byteOffset":20420,
			"target":34962
		},
		{
			"buffer":0,
			"byteLength":4448,
			"byteOffset":27092,
			"target":34962
		},
		{
			"buffer":0,
			"byteLength":6672,
			"byteOffset":31540,
			"target":34962
		},
		{
			"buffer":0,
			"byteLength":5808,
			"byteOffset":38212,
			"target":34963
		},
		{
			"buffer":0,
			"byteLength":6672,
			"byteOffset":44020,
			"target":34962
		},
		{
			"buffer":0,
			"byteLength":4448,
			"byteOffset":50692,
			"target":34962
		},
		{
			"buffer":0,
			"byteLength":6672,
			"byteOffset":55140,
			"target":34962
		},
		{
			"buffer":0,
			"byteLength":6672,
			"byteOffset":61812,
			"target":34962
		},
		{
			"buffer":0,
			"byteLength":4448,
			"byteOffset":68484,
			"target":34962
		},
		{
			"buffer":0,
			"byteLength":6672,
			"byteOffset":72932,
			"target":34962
		},
		{
			"buffer":0,
			"byteLength":48,
			"byteOffset":79604,
			"target":34962
		},
		{
			"buffer":0,
			"byteLength":32,
			"byteOffset":79652,
			"target":34962
		},
		{
			"buffer":0,
			"byteLength":48,
			"byteOffset":79684,
			"target":34962
		}
	],
	"samplers":[
		{
			"magFilter":9729,
			"minFilter":9987
		}
	],
	"buffers":[
		{
			"byteLength":79732,
			"uri":"sponza-small.bin"
		}
	]
}
