{
	"asset":{
		"generator":"Khronos glTF Blender I/O v3.5.30",
		"version":"2.0"
	},
	"extensionsUsed":[
		"KHR_materials_emissive_strength"
	],
	"scene":0,
	"scenes":[
		{
			"name":"Scene",
			"nodes":[
				0,
				1,
				2,
				3,
				4,
				5,
				6,
				7,
				8,
				9,
				10,
				11,
				12,
				13,
				14,
				15,
				16,
				17,
				18,
				19,
				20
			]
		}
	],
	"nodes":[
		{
			"camera":0,
			"name":"Camera",
			"rotation":[
				-0.1134815514087677,
				0.8823233842849731,
				0.27396872639656067,
				0.3654703199863434
			],
			"translation":[
				20,
				20,
				-20
			]
		},
		{
			"mesh":0,
			"name":"Sphere",
			"translation":[
				0,
				1.600000023841858,
				3
			]
		},
		{
			"mesh":1,
			"name":"Sphere.001",
			"translation":[
				1.3000000715255737,
				1.600000023841858,
				3
			]
		},
		{
			"mesh":2,
			"name":"Sphere.002",
			"translation":[
				-1.3000000715255737,
				1.600000023841858,
				3
			]
		},
		{
			"mesh":3,
			"name":"vr_start_pos"
		},
		{
			"name":"env",
			"translation":[
				0,
				2,
				0
			]
		},
		{
			"name":"room_reflection",
			"scale":[
				8.531691551208496,
				1.971531867980957,
				6.672533988952637
			],
			"translation":[
				-1.589676022529602,
				1.399999976158142,
				-0.010873198509216309
			]
		},
		{
			"name":"room_irradiance",
			"rotation":[
				0,
				0,
				-1,
				0
			],
			"scale":[
				-6.902073860168457,
				-1.4936609268188477,
				-5.459566116333008
			],
			"translation":[
				-1.6603466272354126,
				1.3486359119415283,
				0
			]
		},
		{
			"mesh":4,
			"name":"earth",
			"scale":[
				226.753173828125,
				226.753173828125,
				226.753173828125
			],
			"translation":[
				0,
				-0.009999999776482582,
				0
			]
		},
		{
			"mesh":5,
			"name":"ref_body",
			"translation":[
				0,
				0,
				-4
			]
		},
		{
			"mesh":6,
			"name":"ceiling_light",
			"rotation":[
				0,
				-0.7071067094802856,
				0,
				0.7071068286895752
			],
			"scale":[
				2.880000114440918,
				1.2000000476837158,
				0.36000001430511475
			],
			"translation":[
				2.9000000953674316,
				2.683073043823242,
				-3
			]
		},
		{
			"mesh":6,
			"name":"ceiling_light.001",
			"rotation":[
				0,
				-0.7071067094802856,
				0,
				0.7071068286895752
			],
			"scale":[
				2.880000114440918,
				1.2000000476837158,
				0.36000001430511475
			],
			"translation":[
				2.9000000953674316,
				2.683073043823242,
				2.5754332542419434
			]
		},
		{
			"mesh":6,
			"name":"ceiling_light.002",
			"rotation":[
				0,
				-0.7071067094802856,
				0,
				0.7071068286895752
			],
			"scale":[
				2.880000114440918,
				1.2000000476837158,
				0.36000001430511475
			],
			"translation":[
				-0.09999990463256836,
				2.683073043823242,
				-3
			]
		},
		{
			"mesh":6,
			"name":"ceiling_light.003",
			"rotation":[
				0,
				-0.7071067094802856,
				0,
				0.7071068286895752
			],
			"scale":[
				2.880000114440918,
				1.2000000476837158,
				0.36000001430511475
			],
			"translation":[
				-0.09999990463256836,
				2.683073043823242,
				2.5754332542419434
			]
		},
		{
			"mesh":6,
			"name":"ceiling_light.004",
			"rotation":[
				0,
				-0.7071067094802856,
				0,
				0.7071068286895752
			],
			"scale":[
				2.880000114440918,
				1.2000000476837158,
				0.36000001430511475
			],
			"translation":[
				-3.0999999046325684,
				2.683073043823242,
				-3
			]
		},
		{
			"mesh":6,
			"name":"ceiling_light.005",
			"rotation":[
				0,
				-0.7071067094802856,
				0,
				0.7071068286895752
			],
			"scale":[
				2.880000114440918,
				1.2000000476837158,
				0.36000001430511475
			],
			"translation":[
				-3.0999999046325684,
				2.683073043823242,
				2.5754332542419434
			]
		},
		{
			"mesh":6,
			"name":"ceiling_light.006",
			"rotation":[
				0,
				-0.7071067094802856,
				0,
				0.7071068286895752
			],
			"scale":[
				2.880000114440918,
				1.2000000476837158,
				0.36000001430511475
			],
			"translation":[
				-6.099999904632568,
				2.683073043823242,
				2.5754332542419434
			]
		},
		{
			"mesh":7,
			"name":"sun_placeholder",
			"rotation":[
				0.0871557667851448,
				0,
				-0.08682408183813095,
				0.9924038648605347
			],
			"translation":[
				7,
				12,
				0
			]
		},
		{
			"mesh":8,
			"name":"walls",
			"scale":[
				5.200000286102295,
				1,
				5.200000286102295
			]
		},
		{
			"mesh":9,
			"name":"ceilling",
			"scale":[
				5.200000286102295,
				1,
				5.200000286102295
			]
		},
		{
			"mesh":10,
			"name":"floor",
			"scale":[
				5.200000286102295,
				1,
				5.200000286102295
			],
			"translation":[
				0,
				-2.700000047683716,
				0
			]
		}
	],
	"cameras":[
		{
			"name":"Camera",
			"perspective":{
				"aspectRatio":2,
				"yfov":0.3561859015430042,
				"zfar":100,
				"znear":0.10000000149011612
			},
			"type":"perspective"
		}
	],
	"materials":[
		{
			"doubleSided":true,
			"name":"shine plastic",
			"pbrMetallicRoughness":{
				"metallicFactor":0,
				"roughnessFactor":0.30000001192092896
			}
		},
		{
			"doubleSided":true,
			"name":"metal",
			"pbrMetallicRoughness":{
				"roughnessFactor":0.30000001192092896
			}
		},
		{
			"doubleSided":true,
			"name":"debug",
			"pbrMetallicRoughness":{
				"baseColorFactor":[
					0.8000000715255737,
					0,
					0.002137181581929326,
					1
				],
				"metallicFactor":0.10000000149011612,
				"roughnessFactor":0.8999999761581421
			}
		},
		{
			"doubleSided":true,
			"name":"body",
			"pbrMetallicRoughness":{
				"baseColorFactor":[
					0.8000000715255737,
					0.1969868242740631,
					0.03570083528757095,
					1
				],
				"metallicFactor":0.10000000149011612
			}
		},
		{
			"doubleSided":true,
			"emissiveFactor":[
				1,
				1,
				1
			],
			"extensions":{
				"KHR_materials_emissive_strength":{
					"emissiveStrength":1.5
				}
			},
			"name":"neon light",
			"pbrMetallicRoughness":{
				"metallicFactor":0,
				"roughnessFactor":0
			}
		},
		{
			"name":"walls",
			"pbrMetallicRoughness":{
				"baseColorFactor":[
					0.4087322950363159,
					0.7102680206298828,
					0.8000000715255737,
					1
				],
				"metallicFactor":0.20000000298023224,
				"roughnessFactor":0.8999999761581421
			}
		},
		{
			"name":"walls.001",
			"pbrMetallicRoughness":{
				"baseColorFactor":[
					0.4087322950363159,
					0.7102680206298828,
					0.8000000715255737,
					1
				],
				"metallicFactor":0.20000000298023224,
				"roughnessFactor":0.8999999761581421
			}
		},
		{
			"name":"ceiling",
			"pbrMetallicRoughness":{
				"baseColorFactor":[
					0.7525760531425476,
					0.8000000715255737,
					0.8000000715255737,
					1
				],
				"metallicFactor":0,
				"roughnessFactor":0.8999999761581421
			}
		}
	],
	"meshes":[
		{
			"name":"Sphere",
			"primitives":[
				{
					"attributes":{
						"POSITION":0,
						"TEXCOORD_0":1,
						"NORMAL":2
					},
					"indices":3,
					"material":0
				}
			]
		},
		{
			"name":"Sphere.001",
			"primitives":[
				{
					"attributes":{
						"POSITION":4,
						"TEXCOORD_0":5,
						"NORMAL":6
					},
					"indices":3,
					"material":0
				}
			]
		},
		{
			"name":"Sphere.002",
			"primitives":[
				{
					"attributes":{
						"POSITION":7,
						"TEXCOORD_0":8,
						"NORMAL":9
					},
					"indices":3,
					"material":1
				}
			]
		},
		{
			"name":"vr_start_pos_mesh",
			"primitives":[
				{
					"attributes":{
						"POSITION":10,
						"TEXCOORD_0":11,
						"NORMAL":12
					},
					"indices":13,
					"material":2
				}
			]
		},
		{
			"name":"Plane",
			"primitives":[
				{
					"attributes":{
						"POSITION":14,
						"TEXCOORD_0":15,
						"NORMAL":16
					},
					"indices":17
				}
			]
		},
		{
			"name":"body_mesh",
			"primitives":[
				{
					"attributes":{
						"POSITION":18,
						"TEXCOORD_0":19,
						"TEXCOORD_1":20,
						"NORMAL":21
					},
					"indices":22,
					"material":3
				}
			]
		},
		{
			"name":"ceiling_light",
			"primitives":[
				{
					"attributes":{
						"POSITION":23,
						"TEXCOORD_0":24,
						"NORMAL":25
					},
					"indices":17,
					"material":4
				}
			]
		},
		{
			"name":"Plane.001",
			"primitives":[
				{
					"attributes":{
						"POSITION":26,
						"TEXCOORD_0":27,
						"NORMAL":28
					},
					"indices":17
				}
			]
		},
		{
			"name":"floor_mesh.001",
			"primitives":[
				{
					"attributes":{
						"POSITION":29,
						"TEXCOORD_0":30,
						"TEXCOORD_1":31,
						"NORMAL":32
					},
					"indices":33,
					"material":5
				}
			]
		},
		{
			"name":"floor_mesh.004",
			"primitives":[
				{
					"attributes":{
						"POSITION":34,
						"TEXCOORD_0":35,
						"TEXCOORD_1":36,
						"NORMAL":37
					},
					"indices":38,
					"material":6
				}
			]
		},
		{
			"name":"floor_mesh.005",
			"primitives":[
				{
					"attributes":{
						"POSITION":39,
						"TEXCOORD_0":40,
						"TEXCOORD_1":41,
						"NORMAL":42
					},
					"indices":43,
					"material":7
				}
			]
		}
	],
	"accessors":[
		{
			"bufferView":0,
			"componentType":5126,
			"count":151,
			"max":[
				0.5,
				0.5,
				0.5
			],
			"min":[
				-0.4999999701976776,
				-0.5,
				-0.5
			],
			"type":"VEC3"
		},
		{
			"bufferView":1,
			"componentType":5126,
			"count":151,
			"type":"VEC2"
		},
		{
			"bufferView":2,
			"componentType":5126,
			"count":151,
			"type":"VEC3"
		},
		{
			"bufferView":3,
			"componentType":5123,
			"count":672,
			"type":"SCALAR"
		},
		{
			"bufferView":4,
			"componentType":5126,
			"count":151,
			"max":[
				0.5,
				0.5,
				0.5
			],
			"min":[
				-0.4999999701976776,
				-0.5,
				-0.5
			],
			"type":"VEC3"
		},
		{
			"bufferView":5,
			"componentType":5126,
			"count":151,
			"type":"VEC2"
		},
		{
			"bufferView":6,
			"componentType":5126,
			"count":151,
			"type":"VEC3"
		},
		{
			"bufferView":7,
			"componentType":5126,
			"count":151,
			"max":[
				0.5,
				0.5,
				0.5
			],
			"min":[
				-0.4999999701976776,
				-0.5,
				-0.5
			],
			"type":"VEC3"
		},
		{
			"bufferView":8,
			"componentType":5126,
			"count":151,
			"type":"VEC2"
		},
		{
			"bufferView":9,
			"componentType":5126,
			"count":151,
			"type":"VEC3"
		},
		{
			"bufferView":10,
			"componentType":5126,
			"count":24,
			"max":[
				0.30000001192092896,
				1.9000000953674316,
				0.30000001192092896
			],
			"min":[
				-0.30000001192092896,
				1.2999999523162842,
				-0.30000001192092896
			],
			"type":"VEC3"
		},
		{
			"bufferView":11,
			"componentType":5126,
			"count":24,
			"type":"VEC2"
		},
		{
			"bufferView":12,
			"componentType":5126,
			"count":24,
			"type":"VEC3"
		},
		{
			"bufferView":13,
			"componentType":5123,
			"count":36,
			"type":"SCALAR"
		},
		{
			"bufferView":14,
			"componentType":5126,
			"count":4,
			"max":[
				1,
				0,
				1
			],
			"min":[
				-1,
				0,
				-1
			],
			"type":"VEC3"
		},
		{
			"bufferView":15,
			"componentType":5126,
			"count":4,
			"type":"VEC2"
		},
		{
			"bufferView":16,
			"componentType":5126,
			"count":4,
			"type":"VEC3"
		},
		{
			"bufferView":17,
			"componentType":5123,
			"count":6,
			"type":"SCALAR"
		},
		{
			"bufferView":18,
			"componentType":5126,
			"count":3012,
			"max":[
				0.8434494733810425,
				1.8249084949493408,
				0.190630242228508
			],
			"min":[
				-0.8434494733810425,
				-0.0025181882083415985,
				-0.13054703176021576
			],
			"type":"VEC3"
		},
		{
			"bufferView":19,
			"componentType":5126,
			"count":3012,
			"type":"VEC2"
		},
		{
			"bufferView":20,
			"componentType":5126,
			"count":3012,
			"type":"VEC2"
		},
		{
			"bufferView":21,
			"componentType":5126,
			"count":3012,
			"type":"VEC3"
		},
		{
			"bufferView":22,
			"componentType":5123,
			"count":3012,
			"type":"SCALAR"
		},
		{
			"bufferView":23,
			"componentType":5126,
			"count":4,
			"max":[
				0.5,
				0,
				0.5
			],
			"min":[
				-0.5,
				0,
				-0.5
			],
			"type":"VEC3"
		},
		{
			"bufferView":24,
			"componentType":5126,
			"count":4,
			"type":"VEC2"
		},
		{
			"bufferView":25,
			"componentType":5126,
			"count":4,
			"type":"VEC3"
		},
		{
			"bufferView":26,
			"componentType":5126,
			"count":4,
			"max":[
				0.25,
				0,
				0.25
			],
			"min":[
				-0.25,
				0,
				-0.25
			],
			"type":"VEC3"
		},
		{
			"bufferView":27,
			"componentType":5126,
			"count":4,
			"type":"VEC2"
		},
		{
			"bufferView":28,
			"componentType":5126,
			"count":4,
			"type":"VEC3"
		},
		{
			"bufferView":29,
			"componentType":5126,
			"count":56,
			"max":[
				1,
				2.700000047683716,
				0.9935600161552429
			],
			"min":[
				-1.5931036472320557,
				5.960464477539063e-08,
				-1
			],
			"type":"VEC3"
		},
		{
			"bufferView":30,
			"componentType":5126,
			"count":56,
			"type":"VEC2"
		},
		{
			"bufferView":31,
			"componentType":5126,
			"count":56,
			"type":"VEC2"
		},
		{
			"bufferView":32,
			"componentType":5126,
			"count":56,
			"type":"VEC3"
		},
		{
			"bufferView":33,
			"componentType":5123,
			"count":84,
			"type":"SCALAR"
		},
		{
			"bufferView":34,
			"componentType":5126,
			"count":10,
			"max":[
				1,
				2.700000047683716,
				0.9935600161552429
			],
			"min":[
				-1.5931036472320557,
				2.700000047683716,
				-1
			],
			"type":"VEC3"
		},
		{
			"bufferView":35,
			"componentType":5126,
			"count":10,
			"type":"VEC2"
		},
		{
			"bufferView":36,
			"componentType":5126,
			"count":10,
			"type":"VEC2"
		},
		{
			"bufferView":37,
			"componentType":5126,
			"count":10,
			"type":"VEC3"
		},
		{
			"bufferView":38,
			"componentType":5123,
			"count":18,
			"type":"SCALAR"
		},
		{
			"bufferView":39,
			"componentType":5126,
			"count":10,
			"max":[
				1,
				2.700000047683716,
				0.9935600161552429
			],
			"min":[
				-1.5931036472320557,
				2.700000047683716,
				-1
			],
			"type":"VEC3"
		},
		{
			"bufferView":40,
			"componentType":5126,
			"count":10,
			"type":"VEC2"
		},
		{
			"bufferView":41,
			"componentType":5126,
			"count":10,
			"type":"VEC2"
		},
		{
			"bufferView":42,
			"componentType":5126,
			"count":10,
			"type":"VEC3"
		},
		{
			"bufferView":43,
			"componentType":5123,
			"count":18,
			"type":"SCALAR"
		}
	],
	"bufferViews":[
		{
			"buffer":0,
			"byteLength":1812,
			"byteOffset":0,
			"target":34962
		},
		{
			"buffer":0,
			"byteLength":1208,
			"byteOffset":1812,
			"target":34962
		},
		{
			"buffer":0,
			"byteLength":1812,
			"byteOffset":3020,
			"target":34962
		},
		{
			"buffer":0,
			"byteLength":1344,
			"byteOffset":4832,
			"target":34963
		},
		{
			"buffer":0,
			"byteLength":1812,
			"byteOffset":6176,
			"target":34962
		},
		{
			"buffer":0,
			"byteLength":1208,
			"byteOffset":7988,
			"target":34962
		},
		{
			"buffer":0,
			"byteLength":1812,
			"byteOffset":9196,
			"target":34962
		},
		{
			"buffer":0,
			"byteLength":1812,
			"byteOffset":11008,
			"target":34962
		},
		{
			"buffer":0,
			"byteLength":1208,
			"byteOffset":12820,
			"target":34962
		},
		{
			"buffer":0,
			"byteLength":1812,
			"byteOffset":14028,
			"target":34962
		},
		{
			"buffer":0,
			"byteLength":288,
			"byteOffset":15840,
			"target":34962
		},
		{
			"buffer":0,
			"byteLength":192,
			"byteOffset":16128,
			"target":34962
		},
		{
			"buffer":0,
			"byteLength":288,
			"byteOffset":16320,
			"target":34962
		},
		{
			"buffer":0,
			"byteLength":72,
			"byteOffset":16608,
			"target":34963
		},
		{
			"buffer":0,
			"byteLength":48,
			"byteOffset":16680,
			"target":34962
		},
		{
			"buffer":0,
			"byteLength":32,
			"byteOffset":16728,
			"target":34962
		},
		{
			"buffer":0,
			"byteLength":48,
			"byteOffset":16760,
			"target":34962
		},
		{
			"buffer":0,
			"byteLength":12,
			"byteOffset":16808,
			"target":34963
		},
		{
			"buffer":0,
			"byteLength":36144,
			"byteOffset":16820,
			"target":34962
		},
		{
			"buffer":0,
			"byteLength":24096,
			"byteOffset":52964,
			"target":34962
		},
		{
			"buffer":0,
			"byteLength":24096,
			"byteOffset":77060,
			"target":34962
		},
		{
			"buffer":0,
			"byteLength":36144,
			"byteOffset":101156,
			"target":34962
		},
		{
			"buffer":0,
			"byteLength":6024,
			"byteOffset":137300,
			"target":34963
		},
		{
			"buffer":0,
			"byteLength":48,
			"byteOffset":143324,
			"target":34962
		},
		{
			"buffer":0,
			"byteLength":32,
			"byteOffset":143372,
			"target":34962
		},
		{
			"buffer":0,
			"byteLength":48,
			"byteOffset":143404,
			"target":34962
		},
		{
			"buffer":0,
			"byteLength":48,
			"byteOffset":143452,
			"target":34962
		},
		{
			"buffer":0,
			"byteLength":32,
			"byteOffset":143500,
			"target":34962
		},
		{
			"buffer":0,
			"byteLength":48,
			"byteOffset":143532,
			"target":34962
		},
		{
			"buffer":0,
			"byteLength":672,
			"byteOffset":143580,
			"target":34962
		},
		{
			"buffer":0,
			"byteLength":448,
			"byteOffset":144252,
			"target":34962
		},
		{
			"buffer":0,
			"byteLength":448,
			"byteOffset":144700,
			"target":34962
		},
		{
			"buffer":0,
			"byteLength":672,
			"byteOffset":145148,
			"target":34962
		},
		{
			"buffer":0,
			"byteLength":168,
			"byteOffset":145820,
			"target":34963
		},
		{
			"buffer":0,
			"byteLength":120,
			"byteOffset":145988,
			"target":34962
		},
		{
			"buffer":0,
			"byteLength":80,
			"byteOffset":146108,
			"target":34962
		},
		{
			"buffer":0,
			"byteLength":80,
			"byteOffset":146188,
			"target":34962
		},
		{
			"buffer":0,
			"byteLength":120,
			"byteOffset":146268,
			"target":34962
		},
		{
			"buffer":0,
			"byteLength":36,
			"byteOffset":146388,
			"target":34963
		},
		{
			"buffer":0,
			"byteLength":120,
			"byteOffset":146424,
			"target":34962
		},
		{
			"buffer":0,
			"byteLength":80,
			"byteOffset":146544,
			"target":34962
		},
		{
			"buffer":0,
			"byteLength":80,
			"byteOffset":146624,
			"target":34962
		},
		{
			"buffer":0,
			"byteLength":120,
			"byteOffset":146704,
			"target":34962
		},
		{
			"buffer":0,
			"byteLength":36,
			"byteOffset":146824,
			"target":34963
		}
	],
	"buffers":[
		{
			"byteLength":146860,
			"uri":"ref-scene.bin"
		}
	]
}
