{
	"asset":{
		"generator":"Khronos glTF Blender I/O v3.5.30",
		"version":"2.0"
	},
	"extensionsUsed":[
		"KHR_lights_punctual"
	],
	"extensionsRequired":[
		"KHR_lights_punctual"
	],
	"extensions":{
		"KHR_lights_punctual":{
			"lights":[
				{
					"color":[
						1,
						1,
						1
					],
					"intensity":1630.5423919764678,
					"type":"point",
					"name":"Light"
				},
				{
					"color":[
						1,
						1,
						1
					],
					"intensity":543.5141306588226,
					"type":"point",
					"name":"Point"
				},
				{
					"color":[
						1,
						1,
						1
					],
					"intensity":683,
					"type":"directional",
					"name":"Sun"
				}
			]
		}
	},
	"scene":0,
	"scenes":[
		{
			"extras":{
				"three_physics":{},
				"probes_export":{
					"export_directory_path":"/home/gillesboisson/Projects/sandbox/threejs-probes/app/content/bench-probes/",
					"reflection_volume_default_export_nb_levels":3,
					"reflection_volume_default_export_start_roughness":0.10000000149011612,
					"irradiance_volume_default_export_map_size":32,
					"irradiance_volume_default_export_max_texture_size":1024,
					"reflection_cubemap_default_samples_max":12,
					"reflection_volume_default_export_max_texture_size":1024,
					"global_reflectance_nb_levels":3,
					"global_reflectance_start_roughness":0.10000000149011612,
					"global_reflectance_export_map_size":256,
					"global_reflectance_max_texture_size":1024,
					"irradiance_volume_default_map_size":128
				}
			},
			"name":"Scene",
			"nodes":[
				0,
				1,
				2,
				3,
				4,
				5,
				6,
				7,
				8,
				9,
				10,
				11,
				12,
				13,
				14,
				15,
				16,
				17,
				18
			]
		}
	],
	"nodes":[
		{
			"extras":{
				"probes_render":{}
			},
			"mesh":0,
			"name":"Room-walls",
			"scale":[
				2.299999952316284,
				2.299999952316284,
				2.299999952316284
			],
			"translation":[
				-1.297224760055542,
				-7.6013102531433105,
				-0.3853052854537964
			]
		},
		{
			"extras":{
				"probes_render":{}
			},
			"mesh":1,
			"name":"floor",
			"scale":[
				2.299999952316284,
				2.299999952316284,
				2.299999952316284
			],
			"translation":[
				-1.297224760055542,
				-6.378723621368408,
				-0.3853052854537964
			]
		},
		{
			"extras":{
				"probes_render":{}
			},
			"mesh":2,
			"name":"Room-roof",
			"scale":[
				2.299999952316284,
				2.299999952316284,
				2.299999952316284
			],
			"translation":[
				-1.297224760055542,
				-7.6013102531433105,
				-0.3853052854537964
			]
		},
		{
			"extensions":{
				"KHR_lights_punctual":{
					"light":0
				}
			},
			"name":"Light",
			"rotation":[
				-0.28416624665260315,
				0.7269423007965088,
				0.34203389286994934,
				0.5232755541801453
			],
			"scale":[
				2.3000001907348633,
				2.3000001907348633,
				2.299999713897705
			],
			"translation":[
				-1.30079984664917,
				7.406309127807617,
				-13.277849197387695
			]
		},
		{
			"extensions":{
				"KHR_lights_punctual":{
					"light":0
				}
			},
			"name":"Light.001",
			"rotation":[
				-0.28416624665260315,
				0.7269423007965088,
				0.34203389286994934,
				0.5232755541801453
			],
			"scale":[
				2.3000001907348633,
				2.3000001907348633,
				2.299999713897705
			],
			"translation":[
				-14.001859664916992,
				7.406309127807617,
				-0.3978496193885803
			]
		},
		{
			"extensions":{
				"KHR_lights_punctual":{
					"light":0
				}
			},
			"name":"Light.002",
			"rotation":[
				-0.28416624665260315,
				0.7269423007965088,
				0.34203389286994934,
				0.5232755541801453
			],
			"scale":[
				2.3000001907348633,
				2.3000001907348633,
				2.299999713897705
			],
			"translation":[
				-1.2984788417816162,
				7.406309127807617,
				12.712150573730469
			]
		},
		{
			"extensions":{
				"KHR_lights_punctual":{
					"light":0
				}
			},
			"name":"Light.003",
			"rotation":[
				-0.28416624665260315,
				0.7269423007965088,
				0.34203389286994934,
				0.5232755541801453
			],
			"scale":[
				2.3000001907348633,
				2.3000001907348633,
				2.299999713897705
			],
			"translation":[
				11.298139572143555,
				7.406309127807617,
				-0.3978496193885803
			]
		},
		{
			"extensions":{
				"KHR_lights_punctual":{
					"light":1
				}
			},
			"name":"Point",
			"rotation":[
				-0.7071068286895752,
				0,
				0,
				0.7071068286895752
			],
			"scale":[
				2.299999952316284,
				2.299999713897705,
				2.299999713897705
			],
			"translation":[
				-1.297224760055542,
				-6.172572612762451,
				-0.3853052854537964
			]
		},
		{
			"extensions":{
				"KHR_lights_punctual":{
					"light":2
				}
			},
			"name":"Sun",
			"rotation":[
				-0.48577287793159485,
				0.18022163212299347,
				-0.2223598062992096,
				0.8258941769599915
			],
			"scale":[
				2.3000001907348633,
				2.299999713897705,
				2.299999952316284
			],
			"translation":[
				40.44381332397461,
				50.258445739746094,
				11.114699363708496
			]
		},
		{
			"name":"Sun_Placeholder",
			"rotation":[
				0.2405019998550415,
				-0.02979615516960621,
				-0.2846680283546448,
				0.9274886250495911
			],
			"scale":[
				2.3000001907348633,
				2.299999952316284,
				2.299999952316284
			],
			"translation":[
				40.44381332397461,
				50.258445739746094,
				11.114699363708496
			]
		},
		{
			"extras":{
				"probes_render":{}
			},
			"mesh":3,
			"name":"Cube",
			"scale":[
				1.3634740114212036,
				1.3634740114212036,
				1.3634740114212036
			],
			"translation":[
				-1.297224760055542,
				-3.541443347930908,
				-0.3853052854537964
			]
		},
		{
			"name":"out-south",
			"scale":[
				24.01204490661621,
				15.898261070251465,
				4.99765682220459
			],
			"translation":[
				-1.5213289260864258,
				9.605724334716797,
				18.87885284423828
			]
		},
		{
			"name":"out-north",
			"scale":[
				24.01204490661621,
				15.898261070251465,
				4.99765682220459
			],
			"translation":[
				-1.5213289260864258,
				9.605724334716797,
				-19.332292556762695
			]
		},
		{
			"name":"out-east",
			"rotation":[
				0,
				-0.7071067094802856,
				0,
				0.7071068286895752
			],
			"scale":[
				14.052096366882324,
				15.898261070251465,
				3.978289842605591
			],
			"translation":[
				18.358190536499023,
				9.605724334716797,
				-0.24855905771255493
			]
		},
		{
			"name":"out-west",
			"rotation":[
				0,
				-0.7071067094802856,
				0,
				0.7071068286895752
			],
			"scale":[
				14.052096366882324,
				15.898261070251465,
				3.978289842605591
			],
			"translation":[
				-20.819751739501953,
				9.605724334716797,
				-0.24855905771255493
			]
		},
		{
			"name":"ReflectionCubemap",
			"scale":[
				6.669998645782471,
				3.7114205360412598,
				6.669998645782471
			],
			"translation":[
				-1.297224760055542,
				2.3057234287261963,
				-0.3853052854537964
			]
		},
		{
			"name":"ReflectionCubemap.001",
			"scale":[
				2.299999952316284,
				2.299999952316284,
				2.299999952316284
			],
			"translation":[
				-1.297224760055542,
				16.82742691040039,
				-0.3853052854537964
			]
		},
		{
			"name":"out-top",
			"scale":[
				14.254860877990723,
				7.619950294494629,
				14.254860877990723
			],
			"translation":[
				-1.297224760055542,
				17.912519454956055,
				-0.3853052854537964
			]
		},
		{
			"name":"inside",
			"scale":[
				14.254860877990723,
				7.949130535125732,
				14.254860877990723
			],
			"translation":[
				-1.297224760055542,
				2.4945778846740723,
				-0.3853052854537964
			]
		}
	],
	"materials":[
		{
			"doubleSided":true,
			"extras":{
				"diffuse_map":"room_walls_diffuse"
			},
			"name":"room_wall",
			"pbrMetallicRoughness":{
				"baseColorFactor":[
					0.800000011920929,
					0.800000011920929,
					0.800000011920929,
					1
				],
				"metallicFactor":0,
				"roughnessFactor":0.5
			}
		},
		{
			"doubleSided":true,
			"extras":{
				"diffuse_map":"floor_diffuse"
			},
			"name":"Floor mat",
			"pbrMetallicRoughness":{
				"baseColorFactor":[
					0.800000011920929,
					0.800000011920929,
					0.800000011920929,
					1
				],
				"metallicFactor":0,
				"roughnessFactor":0.5
			}
		},
		{
			"doubleSided":true,
			"extras":{
				"diffuse_map":"room_roof_diffuse"
			},
			"name":"Room mat",
			"pbrMetallicRoughness":{
				"baseColorFactor":[
					0.800000011920929,
					0.800000011920929,
					0.800000011920929,
					1
				],
				"metallicFactor":0,
				"roughnessFactor":0.5
			}
		}
	],
	"meshes":[
		{
			"name":"Cube",
			"primitives":[
				{
					"attributes":{
						"POSITION":0,
						"TEXCOORD_0":1,
						"NORMAL":2
					},
					"indices":3,
					"material":0
				}
			]
		},
		{
			"name":"Cube.002",
			"primitives":[
				{
					"attributes":{
						"POSITION":4,
						"TEXCOORD_0":5,
						"NORMAL":6
					},
					"indices":7,
					"material":1
				}
			]
		},
		{
			"name":"Cube.003",
			"primitives":[
				{
					"attributes":{
						"POSITION":8,
						"TEXCOORD_0":9,
						"NORMAL":10
					},
					"indices":11,
					"material":2
				}
			]
		},
		{
			"name":"Cube.001",
			"primitives":[
				{
					"attributes":{
						"POSITION":12,
						"TEXCOORD_0":13,
						"NORMAL":14
					},
					"indices":15
				}
			]
		}
	],
	"accessors":[
		{
			"bufferView":0,
			"componentType":5126,
			"count":152,
			"max":[
				6.200000286102295,
				7.394118785858154,
				6.200000286102295
			],
			"min":[
				-6.200000286102295,
				0.6005793809890747,
				-6.200000286102295
			],
			"type":"VEC3"
		},
		{
			"bufferView":1,
			"componentType":5126,
			"count":152,
			"type":"VEC2"
		},
		{
			"bufferView":2,
			"componentType":5126,
			"count":152,
			"type":"VEC3"
		},
		{
			"bufferView":3,
			"componentType":5123,
			"count":288,
			"type":"SCALAR"
		},
		{
			"bufferView":4,
			"componentType":5126,
			"count":32,
			"max":[
				18,
				0.09999990463256836,
				18
			],
			"min":[
				-18,
				-1.0999999046325684,
				-18
			],
			"type":"VEC3"
		},
		{
			"bufferView":5,
			"componentType":5126,
			"count":32,
			"type":"VEC2"
		},
		{
			"bufferView":6,
			"componentType":5126,
			"count":32,
			"type":"VEC3"
		},
		{
			"bufferView":7,
			"componentType":5123,
			"count":60,
			"type":"SCALAR"
		},
		{
			"bufferView":8,
			"componentType":5126,
			"count":48,
			"max":[
				6.201624393463135,
				7.918778896331787,
				6.201624393463135
			],
			"min":[
				-6.201624393463135,
				7.394118785858154,
				-6.201624393463135
			],
			"type":"VEC3"
		},
		{
			"bufferView":9,
			"componentType":5126,
			"count":48,
			"type":"VEC2"
		},
		{
			"bufferView":10,
			"componentType":5126,
			"count":48,
			"type":"VEC3"
		},
		{
			"bufferView":11,
			"componentType":5123,
			"count":96,
			"type":"SCALAR"
		},
		{
			"bufferView":12,
			"componentType":5126,
			"count":24,
			"max":[
				1,
				1,
				1
			],
			"min":[
				-1,
				-1,
				-1
			],
			"type":"VEC3"
		},
		{
			"bufferView":13,
			"componentType":5126,
			"count":24,
			"type":"VEC2"
		},
		{
			"bufferView":14,
			"componentType":5126,
			"count":24,
			"type":"VEC3"
		},
		{
			"bufferView":15,
			"componentType":5123,
			"count":36,
			"type":"SCALAR"
		}
	],
	"bufferViews":[
		{
			"buffer":0,
			"byteLength":1824,
			"byteOffset":0,
			"target":34962
		},
		{
			"buffer":0,
			"byteLength":1216,
			"byteOffset":1824,
			"target":34962
		},
		{
			"buffer":0,
			"byteLength":1824,
			"byteOffset":3040,
			"target":34962
		},
		{
			"buffer":0,
			"byteLength":576,
			"byteOffset":4864,
			"target":34963
		},
		{
			"buffer":0,
			"byteLength":384,
			"byteOffset":5440,
			"target":34962
		},
		{
			"buffer":0,
			"byteLength":256,
			"byteOffset":5824,
			"target":34962
		},
		{
			"buffer":0,
			"byteLength":384,
			"byteOffset":6080,
			"target":34962
		},
		{
			"buffer":0,
			"byteLength":120,
			"byteOffset":6464,
			"target":34963
		},
		{
			"buffer":0,
			"byteLength":576,
			"byteOffset":6584,
			"target":34962
		},
		{
			"buffer":0,
			"byteLength":384,
			"byteOffset":7160,
			"target":34962
		},
		{
			"buffer":0,
			"byteLength":576,
			"byteOffset":7544,
			"target":34962
		},
		{
			"buffer":0,
			"byteLength":192,
			"byteOffset":8120,
			"target":34963
		},
		{
			"buffer":0,
			"byteLength":288,
			"byteOffset":8312,
			"target":34962
		},
		{
			"buffer":0,
			"byteLength":192,
			"byteOffset":8600,
			"target":34962
		},
		{
			"buffer":0,
			"byteLength":288,
			"byteOffset":8792,
			"target":34962
		},
		{
			"buffer":0,
			"byteLength":72,
			"byteOffset":9080,
			"target":34963
		}
	],
	"buffers":[
		{
			"byteLength":9152,
			"uri":"room-bake-bench.bin"
		}
	]
}
