{
	"asset":{
		"generator":"Khronos glTF Blender I/O v3.5.30",
		"version":"2.0"
	},
	"extensionsUsed":[
		"KHR_lights_punctual"
	],
	"extensionsRequired":[
		"KHR_lights_punctual"
	],
	"extensions":{
		"KHR_lights_punctual":{
			"lights":[
				{
					"color":[
						1,
						1,
						1
					],
					"intensity":1630.5423919764678,
					"type":"point",
					"name":"Light"
				},
				{
					"color":[
						1,
						1,
						1
					],
					"intensity":543.5141306588226,
					"type":"point",
					"name":"Point"
				},
				{
					"color":[
						1,
						1,
						1
					],
					"intensity":683,
					"type":"directional",
					"name":"Sun"
				}
			]
		}
	},
	"scene":0,
	"scenes":[
		{
			"extras":{
				"three_physics":{},
				"probes_export":{}
			},
			"name":"Scene",
			"nodes":[
				0,
				1,
				2,
				3,
				4,
				5,
				6,
				7,
				8,
				9,
				10,
				11,
				12,
				13,
				14,
				15,
				16
			]
		}
	],
	"nodes":[
		{
			"extras":{
				"probes_render":{}
			},
			"mesh":0,
			"name":"Room",
			"translation":[
				0,
				-0.6211902499198914,
				0
			]
		},
		{
			"extras":{
				"probes_render":{}
			},
			"mesh":1,
			"name":"floor",
			"translation":[
				0,
				-0.08963078260421753,
				0
			]
		},
		{
			"extensions":{
				"KHR_lights_punctual":{
					"light":0
				}
			},
			"name":"Light",
			"rotation":[
				-0.28416627645492554,
				0.7269423007965088,
				0.34203392267227173,
				0.5232754945755005
			],
			"translation":[
				-0.0015543457120656967,
				5.903861999511719,
				-5.605453968048096
			]
		},
		{
			"extensions":{
				"KHR_lights_punctual":{
					"light":0
				}
			},
			"name":"Light.001",
			"rotation":[
				-0.28416627645492554,
				0.7269423007965088,
				0.34203392267227173,
				0.5232754945755005
			],
			"translation":[
				-5.523754596710205,
				5.903861999511719,
				-0.005454063415527344
			]
		},
		{
			"extensions":{
				"KHR_lights_punctual":{
					"light":0
				}
			},
			"name":"Light.002",
			"rotation":[
				-0.28416627645492554,
				0.7269423007965088,
				0.34203392267227173,
				0.5232754945755005
			],
			"translation":[
				-0.0005452428013086319,
				5.903861999511719,
				5.694546222686768
			]
		},
		{
			"extensions":{
				"KHR_lights_punctual":{
					"light":0
				}
			},
			"name":"Light.003",
			"rotation":[
				-0.28416627645492554,
				0.7269423007965088,
				0.34203392267227173,
				0.5232754945755005
			],
			"translation":[
				5.476245403289795,
				5.903861999511719,
				-0.005454063415527344
			]
		},
		{
			"extensions":{
				"KHR_lights_punctual":{
					"light":1
				}
			},
			"name":"Point",
			"rotation":[
				-0.7071068286895752,
				0,
				0,
				0.7071068286895752
			]
		},
		{
			"extras":{
				"probes_render":{}
			},
			"mesh":2,
			"name":"Cube",
			"scale":[
				0.5928148031234741,
				0.5928148031234741,
				0.5928148031234741
			],
			"translation":[
				0,
				1.1439696550369263,
				0
			]
		},
		{
			"extensions":{
				"KHR_lights_punctual":{
					"light":2
				}
			},
			"name":"Sun",
			"rotation":[
				-0.48577287793159485,
				0.18022161722183228,
				-0.2223597764968872,
				0.8258941173553467
			],
			"translation":[
				18.148279190063477,
				24.53522491455078,
				5.000001907348633
			]
		},
		{
			"name":"Sun_Placeholder",
			"rotation":[
				0.2405020147562027,
				-0.02979615516960621,
				-0.2846680283546448,
				0.9274886250495911
			],
			"translation":[
				18.148279190063477,
				24.53522491455078,
				5.000001907348633
			]
		},
		{
			"name":"inside",
			"scale":[
				6.197766304016113,
				3.6518843173980713,
				6.197766304016113
			],
			"translation":[
				0,
				3.686216115951538,
				0
			]
		},
		{
			"name":"out-south",
			"scale":[
				10.440019607543945,
				4.74744987487793,
				2.172894239425659
			],
			"translation":[
				-0.09743663668632507,
				3.686216115951538,
				8.375720977783203
			]
		},
		{
			"name":"out-north",
			"scale":[
				10.440019607543945,
				4.74744987487793,
				2.172894239425659
			],
			"translation":[
				-0.09743663668632507,
				3.686216115951538,
				-8.237820625305176
			]
		},
		{
			"name":"out-east",
			"rotation":[
				0,
				-0.7071067094802856,
				0,
				0.7071068286895752
			],
			"scale":[
				6.109607219696045,
				4.74744987487793,
				1.7296912670135498
			],
			"translation":[
				8.545832633972168,
				3.686216115951538,
				0.059454888105392456
			]
		},
		{
			"name":"out-west",
			"rotation":[
				0,
				-0.7071067094802856,
				0,
				0.7071068286895752
			],
			"scale":[
				6.109607219696045,
				4.74744987487793,
				1.7296912670135498
			],
			"translation":[
				-8.488055229187012,
				3.686216115951538,
				0.059454888105392456
			]
		},
		{
			"name":"ReflectionCubemap",
			"scale":[
				2.8999998569488525,
				1.6136611700057983,
				2.8999998569488525
			],
			"translation":[
				0,
				3.686215877532959,
				0
			]
		},
		{
			"name":"ReflectionCubemap.001",
			"translation":[
				0,
				10,
				0
			]
		}
	],
	"materials":[
		{
			"doubleSided":true,
			"name":"Room mat",
			"pbrMetallicRoughness":{
				"baseColorFactor":[
					0.800000011920929,
					0.800000011920929,
					0.800000011920929,
					1
				],
				"metallicFactor":0,
				"roughnessFactor":0.5
			}
		},
		{
			"doubleSided":true,
			"name":"Floor mat",
			"pbrMetallicRoughness":{
				"baseColorFactor":[
					0.800000011920929,
					0.800000011920929,
					0.800000011920929,
					1
				],
				"metallicFactor":0,
				"roughnessFactor":0.5
			}
		}
	],
	"meshes":[
		{
			"name":"Cube",
			"primitives":[
				{
					"attributes":{
						"POSITION":0,
						"TEXCOORD_0":1,
						"NORMAL":2
					},
					"indices":3,
					"material":0
				}
			]
		},
		{
			"name":"Cube.002",
			"primitives":[
				{
					"attributes":{
						"POSITION":4,
						"TEXCOORD_0":5,
						"NORMAL":6
					},
					"indices":7,
					"material":1
				}
			]
		},
		{
			"name":"Cube.001",
			"primitives":[
				{
					"attributes":{
						"POSITION":8,
						"TEXCOORD_0":9,
						"NORMAL":10
					},
					"indices":11
				}
			]
		}
	],
	"accessors":[
		{
			"bufferView":0,
			"componentType":5126,
			"count":201,
			"max":[
				6.201624393463135,
				7.918778896331787,
				6.201624393463135
			],
			"min":[
				-6.201624393463135,
				0.6005793809890747,
				-6.201624393463135
			],
			"type":"VEC3"
		},
		{
			"bufferView":1,
			"componentType":5126,
			"count":201,
			"type":"VEC2"
		},
		{
			"bufferView":2,
			"componentType":5126,
			"count":201,
			"type":"VEC3"
		},
		{
			"bufferView":3,
			"componentType":5123,
			"count":384,
			"type":"SCALAR"
		},
		{
			"bufferView":4,
			"componentType":5126,
			"count":32,
			"max":[
				18,
				0.09999990463256836,
				18
			],
			"min":[
				-18,
				-1.0999999046325684,
				-18
			],
			"type":"VEC3"
		},
		{
			"bufferView":5,
			"componentType":5126,
			"count":32,
			"type":"VEC2"
		},
		{
			"bufferView":6,
			"componentType":5126,
			"count":32,
			"type":"VEC3"
		},
		{
			"bufferView":7,
			"componentType":5123,
			"count":60,
			"type":"SCALAR"
		},
		{
			"bufferView":8,
			"componentType":5126,
			"count":24,
			"max":[
				1,
				1,
				1
			],
			"min":[
				-1,
				-1,
				-1
			],
			"type":"VEC3"
		},
		{
			"bufferView":9,
			"componentType":5126,
			"count":24,
			"type":"VEC2"
		},
		{
			"bufferView":10,
			"componentType":5126,
			"count":24,
			"type":"VEC3"
		},
		{
			"bufferView":11,
			"componentType":5123,
			"count":36,
			"type":"SCALAR"
		}
	],
	"bufferViews":[
		{
			"buffer":0,
			"byteLength":2412,
			"byteOffset":0,
			"target":34962
		},
		{
			"buffer":0,
			"byteLength":1608,
			"byteOffset":2412,
			"target":34962
		},
		{
			"buffer":0,
			"byteLength":2412,
			"byteOffset":4020,
			"target":34962
		},
		{
			"buffer":0,
			"byteLength":768,
			"byteOffset":6432,
			"target":34963
		},
		{
			"buffer":0,
			"byteLength":384,
			"byteOffset":7200,
			"target":34962
		},
		{
			"buffer":0,
			"byteLength":256,
			"byteOffset":7584,
			"target":34962
		},
		{
			"buffer":0,
			"byteLength":384,
			"byteOffset":7840,
			"target":34962
		},
		{
			"buffer":0,
			"byteLength":120,
			"byteOffset":8224,
			"target":34963
		},
		{
			"buffer":0,
			"byteLength":288,
			"byteOffset":8344,
			"target":34962
		},
		{
			"buffer":0,
			"byteLength":192,
			"byteOffset":8632,
			"target":34962
		},
		{
			"buffer":0,
			"byteLength":288,
			"byteOffset":8824,
			"target":34962
		},
		{
			"buffer":0,
			"byteLength":72,
			"byteOffset":9112,
			"target":34963
		}
	],
	"buffers":[
		{
			"byteLength":9184,
			"uri":"room-bake-bench.bin"
		}
	]
}
