{
	"asset":{
		"generator":"Khronos glTF Blender I/O v3.5.30",
		"version":"2.0"
	},
	"scene":0,
	"scenes":[
		{
			"name":"Scene",
			"nodes":[
				0,
				1,
				2,
				3,
				4,
				5,
				6,
				7,
				8,
				9,
				10,
				11,
				12
			]
		}
	],
	"nodes":[
		{
			"name":"IrradianceVolume",
			"scale":[
				16,
				5,
				16
			],
			"translation":[
				0,
				5,
				0
			]
		},
		{
			"name":"ReflectionCubemap 1",
			"translation":[
				0,
				5,
				8
			]
		},
		{
			"name":"ReflectionCubemap 2",
			"translation":[
				0,
				5,
				-8
			]
		},
		{
			"mesh":0,
			"name":"east-wall",
			"rotation":[
				-0.5000000596046448,
				0.4999999403953552,
				-0.4999999403953552,
				0.5000000596046448
			],
			"scale":[
				-5.759999752044678,
				-14.40000057220459,
				-14.40000057220459
			],
			"translation":[
				0,
				4,
				14
			]
		},
		{
			"mesh":1,
			"name":"floor",
			"scale":[
				-14.40000057220459,
				-14.40000057220459,
				-14.40000057220459
			]
		},
		{
			"mesh":2,
			"name":"north-int-wall",
			"rotation":[
				-0.5000000596046448,
				0.4999999403953552,
				-0.4999999403953552,
				0.5000000596046448
			],
			"scale":[
				-5.759999752044678,
				-14.40000057220459,
				-21.600000381469727
			],
			"translation":[
				15.307426452636719,
				4,
				0
			]
		},
		{
			"mesh":3,
			"name":"north-wall",
			"rotation":[
				0.70710688829422,
				-0.7071066498756409,
				0,
				5.338507946817117e-08
			],
			"scale":[
				-5.759999752044678,
				-14.40000057220459,
				-14.40000057220459
			],
			"translation":[
				14,
				4,
				0
			]
		},
		{
			"mesh":4,
			"name":"south-int-wall",
			"rotation":[
				-0.5000000596046448,
				0.4999999403953552,
				-0.4999999403953552,
				0.5000000596046448
			],
			"scale":[
				-5.759999752044678,
				-14.40000057220459,
				-14.40000057220459
			],
			"translation":[
				0,
				4,
				0
			]
		},
		{
			"mesh":5,
			"name":"south-wall",
			"rotation":[
				0,
				0,
				-0.7071066498756409,
				0.70710688829422
			],
			"scale":[
				-5.759999752044678,
				-14.40000057220459,
				-14.40000057220459
			],
			"translation":[
				-14,
				4,
				0
			]
		},
		{
			"mesh":6,
			"name":"west--wall",
			"rotation":[
				0.5,
				-0.49999988079071045,
				-0.5,
				0.5000001192092896
			],
			"scale":[
				-5.759999752044678,
				-14.40000057220459,
				-14.40000057220459
			],
			"translation":[
				0,
				4,
				-14
			]
		},
		{
			"mesh":7,
			"name":"west-cube",
			"rotation":[
				0,
				-0.7071067094802856,
				0,
				0.7071068286895752
			],
			"translation":[
				0,
				2,
				-8
			]
		},
		{
			"mesh":8,
			"name":"west-cube.001",
			"rotation":[
				0,
				-0.7071067094802856,
				0,
				0.7071068286895752
			],
			"translation":[
				0,
				2,
				8
			]
		},
		{
			"mesh":9,
			"name":"west-cube.002",
			"rotation":[
				0,
				-0.7071067094802856,
				0,
				0.7071068286895752
			],
			"scale":[
				0.3999999761581421,
				0.3999999761581421,
				0.3999999761581421
			],
			"translation":[
				9,
				2,
				8
			]
		}
	],
	"materials":[
		{
			"doubleSided":true,
			"name":"Material.005",
			"pbrMetallicRoughness":{
				"baseColorFactor":[
					0.5,
					1,
					0.5,
					1
				],
				"metallicFactor":0,
				"roughnessFactor":0.5
			}
		},
		{
			"doubleSided":true,
			"name":"Material",
			"pbrMetallicRoughness":{
				"baseColorFactor":[
					0.800000011920929,
					0.800000011920929,
					0.800000011920929,
					1
				],
				"metallicFactor":0,
				"roughnessFactor":0.5
			}
		},
		{
			"doubleSided":true,
			"name":"Material.001",
			"pbrMetallicRoughness":{
				"baseColorFactor":[
					1,
					0,
					0,
					1
				],
				"metallicFactor":0
			}
		},
		{
			"doubleSided":true,
			"name":"Material.006",
			"pbrMetallicRoughness":{
				"baseColorFactor":[
					1,
					0.5,
					0.5,
					1
				],
				"metallicFactor":0,
				"roughnessFactor":0.5
			}
		},
		{
			"doubleSided":true,
			"name":"Material.002",
			"pbrMetallicRoughness":{
				"baseColorFactor":[
					0,
					1,
					0,
					1
				],
				"metallicFactor":0,
				"roughnessFactor":0.5
			}
		}
	],
	"meshes":[
		{
			"name":"Plane.004",
			"primitives":[
				{
					"attributes":{
						"POSITION":0,
						"TEXCOORD_0":1,
						"TEXCOORD_1":2,
						"NORMAL":3
					},
					"indices":4,
					"material":0
				}
			]
		},
		{
			"name":"Plane",
			"primitives":[
				{
					"attributes":{
						"POSITION":5,
						"TEXCOORD_0":6,
						"TEXCOORD_1":7,
						"NORMAL":8
					},
					"indices":4,
					"material":1
				}
			]
		},
		{
			"name":"Plane.006",
			"primitives":[
				{
					"attributes":{
						"POSITION":9,
						"TEXCOORD_0":10,
						"TEXCOORD_1":11,
						"NORMAL":12
					},
					"indices":4,
					"material":0
				}
			]
		},
		{
			"name":"Plane.003",
			"primitives":[
				{
					"attributes":{
						"POSITION":13,
						"TEXCOORD_0":14,
						"TEXCOORD_1":15,
						"NORMAL":16
					},
					"indices":4,
					"material":2
				}
			]
		},
		{
			"name":"Plane.005",
			"primitives":[
				{
					"attributes":{
						"POSITION":17,
						"TEXCOORD_0":18,
						"TEXCOORD_1":19,
						"NORMAL":20
					},
					"indices":4,
					"material":0
				}
			]
		},
		{
			"name":"Plane.001",
			"primitives":[
				{
					"attributes":{
						"POSITION":21,
						"TEXCOORD_0":22,
						"TEXCOORD_1":23,
						"NORMAL":24
					},
					"indices":4,
					"material":3
				}
			]
		},
		{
			"name":"Plane.002",
			"primitives":[
				{
					"attributes":{
						"POSITION":25,
						"TEXCOORD_0":26,
						"TEXCOORD_1":27,
						"NORMAL":28
					},
					"indices":4,
					"material":4
				}
			]
		},
		{
			"name":"Cube.001",
			"primitives":[
				{
					"attributes":{
						"POSITION":29,
						"TEXCOORD_0":30,
						"TEXCOORD_1":31,
						"NORMAL":32
					},
					"indices":33
				}
			]
		},
		{
			"name":"Cube.002",
			"primitives":[
				{
					"attributes":{
						"POSITION":34,
						"TEXCOORD_0":35,
						"TEXCOORD_1":36,
						"NORMAL":37
					},
					"indices":38
				}
			]
		},
		{
			"name":"Cube.003",
			"primitives":[
				{
					"attributes":{
						"POSITION":39,
						"TEXCOORD_0":40,
						"TEXCOORD_1":41,
						"NORMAL":42
					},
					"indices":38
				}
			]
		}
	],
	"accessors":[
		{
			"bufferView":0,
			"componentType":5126,
			"count":4,
			"max":[
				1,
				0,
				1
			],
			"min":[
				-1,
				0,
				-1
			],
			"type":"VEC3"
		},
		{
			"bufferView":1,
			"componentType":5126,
			"count":4,
			"type":"VEC2"
		},
		{
			"bufferView":2,
			"componentType":5126,
			"count":4,
			"type":"VEC2"
		},
		{
			"bufferView":3,
			"componentType":5126,
			"count":4,
			"type":"VEC3"
		},
		{
			"bufferView":4,
			"componentType":5123,
			"count":6,
			"type":"SCALAR"
		},
		{
			"bufferView":5,
			"componentType":5126,
			"count":4,
			"max":[
				1,
				0,
				1
			],
			"min":[
				-1,
				0,
				-1
			],
			"type":"VEC3"
		},
		{
			"bufferView":6,
			"componentType":5126,
			"count":4,
			"type":"VEC2"
		},
		{
			"bufferView":7,
			"componentType":5126,
			"count":4,
			"type":"VEC2"
		},
		{
			"bufferView":8,
			"componentType":5126,
			"count":4,
			"type":"VEC3"
		},
		{
			"bufferView":9,
			"componentType":5126,
			"count":4,
			"max":[
				1.000000238418579,
				5.7968172484379465e-09,
				0.444444477558136
			],
			"min":[
				-1.000000238418579,
				-6.6249334906842705e-09,
				-0.5138888955116272
			],
			"type":"VEC3"
		},
		{
			"bufferView":10,
			"componentType":5126,
			"count":4,
			"type":"VEC2"
		},
		{
			"bufferView":11,
			"componentType":5126,
			"count":4,
			"type":"VEC2"
		},
		{
			"bufferView":12,
			"componentType":5126,
			"count":4,
			"type":"VEC3"
		},
		{
			"bufferView":13,
			"componentType":5126,
			"count":4,
			"max":[
				1,
				0,
				1
			],
			"min":[
				-1,
				0,
				-1
			],
			"type":"VEC3"
		},
		{
			"bufferView":14,
			"componentType":5126,
			"count":4,
			"type":"VEC2"
		},
		{
			"bufferView":15,
			"componentType":5126,
			"count":4,
			"type":"VEC2"
		},
		{
			"bufferView":16,
			"componentType":5126,
			"count":4,
			"type":"VEC3"
		},
		{
			"bufferView":17,
			"componentType":5126,
			"count":4,
			"max":[
				1.0000004768371582,
				1.2421750739122217e-08,
				1
			],
			"min":[
				-1,
				0,
				0.041666626930236816
			],
			"type":"VEC3"
		},
		{
			"bufferView":18,
			"componentType":5126,
			"count":4,
			"type":"VEC2"
		},
		{
			"bufferView":19,
			"componentType":5126,
			"count":4,
			"type":"VEC2"
		},
		{
			"bufferView":20,
			"componentType":5126,
			"count":4,
			"type":"VEC3"
		},
		{
			"bufferView":21,
			"componentType":5126,
			"count":4,
			"max":[
				1,
				0,
				1
			],
			"min":[
				-1,
				0,
				-1
			],
			"type":"VEC3"
		},
		{
			"bufferView":22,
			"componentType":5126,
			"count":4,
			"type":"VEC2"
		},
		{
			"bufferView":23,
			"componentType":5126,
			"count":4,
			"type":"VEC2"
		},
		{
			"bufferView":24,
			"componentType":5126,
			"count":4,
			"type":"VEC3"
		},
		{
			"bufferView":25,
			"componentType":5126,
			"count":4,
			"max":[
				1,
				0,
				1
			],
			"min":[
				-1,
				0,
				-1
			],
			"type":"VEC3"
		},
		{
			"bufferView":26,
			"componentType":5126,
			"count":4,
			"type":"VEC2"
		},
		{
			"bufferView":27,
			"componentType":5126,
			"count":4,
			"type":"VEC2"
		},
		{
			"bufferView":28,
			"componentType":5126,
			"count":4,
			"type":"VEC3"
		},
		{
			"bufferView":29,
			"componentType":5126,
			"count":24,
			"max":[
				2.1198580265045166,
				2.1198580265045166,
				2.1198580265045166
			],
			"min":[
				-2.1198580265045166,
				-2.1198580265045166,
				-2.1198580265045166
			],
			"type":"VEC3"
		},
		{
			"bufferView":30,
			"componentType":5126,
			"count":24,
			"type":"VEC2"
		},
		{
			"bufferView":31,
			"componentType":5126,
			"count":24,
			"type":"VEC2"
		},
		{
			"bufferView":32,
			"componentType":5126,
			"count":24,
			"type":"VEC3"
		},
		{
			"bufferView":33,
			"componentType":5123,
			"count":36,
			"type":"SCALAR"
		},
		{
			"bufferView":34,
			"componentType":5126,
			"count":24,
			"max":[
				2.1198580265045166,
				2.1198580265045166,
				2.1198580265045166
			],
			"min":[
				-2.1198580265045166,
				-2.1198580265045166,
				-2.1198580265045166
			],
			"type":"VEC3"
		},
		{
			"bufferView":35,
			"componentType":5126,
			"count":24,
			"type":"VEC2"
		},
		{
			"bufferView":36,
			"componentType":5126,
			"count":24,
			"type":"VEC2"
		},
		{
			"bufferView":37,
			"componentType":5126,
			"count":24,
			"type":"VEC3"
		},
		{
			"bufferView":38,
			"componentType":5123,
			"count":36,
			"type":"SCALAR"
		},
		{
			"bufferView":39,
			"componentType":5126,
			"count":24,
			"max":[
				2.1198580265045166,
				2.1198580265045166,
				2.1198580265045166
			],
			"min":[
				-2.1198580265045166,
				-2.1198580265045166,
				-2.1198580265045166
			],
			"type":"VEC3"
		},
		{
			"bufferView":40,
			"componentType":5126,
			"count":24,
			"type":"VEC2"
		},
		{
			"bufferView":41,
			"componentType":5126,
			"count":24,
			"type":"VEC2"
		},
		{
			"bufferView":42,
			"componentType":5126,
			"count":24,
			"type":"VEC3"
		}
	],
	"bufferViews":[
		{
			"buffer":0,
			"byteLength":48,
			"byteOffset":0,
			"target":34962
		},
		{
			"buffer":0,
			"byteLength":32,
			"byteOffset":48,
			"target":34962
		},
		{
			"buffer":0,
			"byteLength":32,
			"byteOffset":80,
			"target":34962
		},
		{
			"buffer":0,
			"byteLength":48,
			"byteOffset":112,
			"target":34962
		},
		{
			"buffer":0,
			"byteLength":12,
			"byteOffset":160,
			"target":34963
		},
		{
			"buffer":0,
			"byteLength":48,
			"byteOffset":172,
			"target":34962
		},
		{
			"buffer":0,
			"byteLength":32,
			"byteOffset":220,
			"target":34962
		},
		{
			"buffer":0,
			"byteLength":32,
			"byteOffset":252,
			"target":34962
		},
		{
			"buffer":0,
			"byteLength":48,
			"byteOffset":284,
			"target":34962
		},
		{
			"buffer":0,
			"byteLength":48,
			"byteOffset":332,
			"target":34962
		},
		{
			"buffer":0,
			"byteLength":32,
			"byteOffset":380,
			"target":34962
		},
		{
			"buffer":0,
			"byteLength":32,
			"byteOffset":412,
			"target":34962
		},
		{
			"buffer":0,
			"byteLength":48,
			"byteOffset":444,
			"target":34962
		},
		{
			"buffer":0,
			"byteLength":48,
			"byteOffset":492,
			"target":34962
		},
		{
			"buffer":0,
			"byteLength":32,
			"byteOffset":540,
			"target":34962
		},
		{
			"buffer":0,
			"byteLength":32,
			"byteOffset":572,
			"target":34962
		},
		{
			"buffer":0,
			"byteLength":48,
			"byteOffset":604,
			"target":34962
		},
		{
			"buffer":0,
			"byteLength":48,
			"byteOffset":652,
			"target":34962
		},
		{
			"buffer":0,
			"byteLength":32,
			"byteOffset":700,
			"target":34962
		},
		{
			"buffer":0,
			"byteLength":32,
			"byteOffset":732,
			"target":34962
		},
		{
			"buffer":0,
			"byteLength":48,
			"byteOffset":764,
			"target":34962
		},
		{
			"buffer":0,
			"byteLength":48,
			"byteOffset":812,
			"target":34962
		},
		{
			"buffer":0,
			"byteLength":32,
			"byteOffset":860,
			"target":34962
		},
		{
			"buffer":0,
			"byteLength":32,
			"byteOffset":892,
			"target":34962
		},
		{
			"buffer":0,
			"byteLength":48,
			"byteOffset":924,
			"target":34962
		},
		{
			"buffer":0,
			"byteLength":48,
			"byteOffset":972,
			"target":34962
		},
		{
			"buffer":0,
			"byteLength":32,
			"byteOffset":1020,
			"target":34962
		},
		{
			"buffer":0,
			"byteLength":32,
			"byteOffset":1052,
			"target":34962
		},
		{
			"buffer":0,
			"byteLength":48,
			"byteOffset":1084,
			"target":34962
		},
		{
			"buffer":0,
			"byteLength":288,
			"byteOffset":1132,
			"target":34962
		},
		{
			"buffer":0,
			"byteLength":192,
			"byteOffset":1420,
			"target":34962
		},
		{
			"buffer":0,
			"byteLength":192,
			"byteOffset":1612,
			"target":34962
		},
		{
			"buffer":0,
			"byteLength":288,
			"byteOffset":1804,
			"target":34962
		},
		{
			"buffer":0,
			"byteLength":72,
			"byteOffset":2092,
			"target":34963
		},
		{
			"buffer":0,
			"byteLength":288,
			"byteOffset":2164,
			"target":34962
		},
		{
			"buffer":0,
			"byteLength":192,
			"byteOffset":2452,
			"target":34962
		},
		{
			"buffer":0,
			"byteLength":192,
			"byteOffset":2644,
			"target":34962
		},
		{
			"buffer":0,
			"byteLength":288,
			"byteOffset":2836,
			"target":34962
		},
		{
			"buffer":0,
			"byteLength":72,
			"byteOffset":3124,
			"target":34963
		},
		{
			"buffer":0,
			"byteLength":288,
			"byteOffset":3196,
			"target":34962
		},
		{
			"buffer":0,
			"byteLength":192,
			"byteOffset":3484,
			"target":34962
		},
		{
			"buffer":0,
			"byteLength":192,
			"byteOffset":3676,
			"target":34962
		},
		{
			"buffer":0,
			"byteLength":288,
			"byteOffset":3868,
			"target":34962
		}
	],
	"buffers":[
		{
			"byteLength":4156,
			"uri":"baking-probs.bin"
		}
	]
}
