{
	"asset":{
		"generator":"Khronos glTF Blender I/O v3.5.30",
		"version":"2.0"
	},
	"scene":0,
	"scenes":[
		{
			"extras":{
				"three_physics":{
					"physics_mode":1,
					"physics_2d_display_shape":0,
					"physics_2d_orientation":1,
					"physics_2d_enabled":1,
					"physics_2d_joints":{
						"revolute_joints":[],
						"distance_joints":[
							{
								"body_a":null,
								"body_b":null,
								"length":2.0
							},
							{
								"body_a":null,
								"body_b":null,
								"length":2.0,
								"anchor_a":[
									-0.019504070281982422,
									0.0
								]
							}
						],
						"wheel_joints":[
							{
								"body_a":null,
								"body_b":null,
								"local_axis":[
									6.123234262925839e-17,
									1.0
								]
							},
							{
								"body_a":null,
								"body_b":null,
								"enable_motor":1,
								"frequency":0.10000000149011612,
								"motor_speed":10.0,
								"max_motor_torque":10.0
							},
							{
								"body_a":null,
								"body_b":null,
								"anchor_a":[
									3.0,
									0.0
								]
							}
						],
						"rope_joints":[],
						"prismatic_joints":[
							{
								"body_a":null,
								"body_b":null,
								"local_axis":[
									0.9788045287132263,
									-0.20479679107666016
								],
								"anchor_a":[
									0.02456974983215332,
									2.2992196083068848
								],
								"enable_limit":1,
								"lower":0.0,
								"upper":9.699999809265137,
								"anchor_b":[
									-4.777403831481934,
									1.3597142696380615
								]
							}
						]
					},
					"physics_2d_viewport_settings":{
						"display_shape_gizmos":1,
						"display_shape":1,
						"display_joint_gizmos":1,
						"display_joint":1
					},
					"physics_2d_gravity":[
						0.0,
						-1.0
					]
				}
			},
			"name":"Scene",
			"nodes":[
				0,
				1,
				2,
				3,
				4,
				5,
				6,
				7,
				8,
				9,
				10,
				11
			]
		}
	],
	"nodes":[
		{
			"extras":{
				"physics_2d_joints":{
					"revolute_joints":[
						{
							"body_b":{
								"name":"Cube.001",
								"type":"Object"
							},
							"anchor_a":[
								0.0,
								-1.9999998807907104
							],
							"collide_connected":1,
							"enable_limit":1,
							"lower_angle":0.0,
							"upper_angle":10.0,
							"reference_angle":2.0,
							"enable_motor":1,
							"motor_speed":1.0,
							"max_motor_torque":2.0
						}
					]
				}
			},
			"mesh":0,
			"name":"revolute-base",
			"translation":[
				3,
				2,
				-4
			]
		},
		{
			"extras":{
				"physics_2d_joints":{}
			},
			"mesh":1,
			"name":"Cube.001",
			"translation":[
				3,
				0,
				-4
			]
		},
		{
			"extras":{
				"physics_2d_joints":{
					"revolute_joints":[],
					"distance_joints":[
						{
							"body_b":{
								"name":"Cube.006",
								"type":"Object"
							},
							"enable_limit":1,
							"lower":1.309999942779541,
							"upper":2.9000000953674316,
							"collide_connected":1,
							"anchor_a":[
								1.0,
								2.0
							],
							"anchor_b":[
								3.0,
								4.0
							],
							"stiffness":2.0,
							"damping_ratio":4.0
						}
					]
				}
			},
			"mesh":2,
			"name":"distance-base",
			"translation":[
				4.400000095367432,
				2,
				-4
			]
		},
		{
			"extras":{
				"physics_2d_joints":{}
			},
			"mesh":3,
			"name":"Cube.006",
			"translation":[
				4.400000095367432,
				0,
				-4
			]
		},
		{
			"extras":{
				"physics_2d_joints":{
					"revolute_joints":[],
					"distance_joints":[],
					"prismatic_joints":[
						{
							"body_b":{
								"name":"Cube.008",
								"type":"Object"
							},
							"anchor_a":[
								0.5399999618530273,
								-1.9999998807907104
							],
							"local_axis":[
								0.9953472018241882,
								-0.26096877455711365
							],
							"enable_limit":1,
							"lower":-0.1499999761581421,
							"upper":1.7400000095367432,
							"collide_connected":1,
							"enable_motor":1,
							"motor_speed":0.20999999344348907
						}
					]
				}
			},
			"mesh":4,
			"name":"prismatic-base",
			"translation":[
				5.800000190734863,
				2,
				-4
			]
		},
		{
			"extras":{
				"physics_2d_joints":{}
			},
			"mesh":5,
			"name":"Cube.008",
			"translation":[
				5.800000190734863,
				0,
				-4
			]
		},
		{
			"extras":{
				"physics_2d_joints":{
					"revolute_joints":[],
					"distance_joints":[],
					"prismatic_joints":[],
					"wheel_joints":[
						{
							"body_b":{
								"name":"Cube.010",
								"type":"Object"
							},
							"anchor_a":[
								0.17999999225139618,
								-1.6099998950958252
							],
							"local_axis":[
								0.2999999523162842,
								1.2999999523162842
							],
							"enable_limit":1,
							"lower":0.1499999761581421,
							"upper":0.5099999904632568,
							"collide_connected":1,
							"enable_motor":1,
							"motor_speed":0.32999998331069946,
							"max_motor_torque":0.41999998688697815,
							"damping_ratio":0.5399999618530273
						}
					]
				}
			},
			"mesh":4,
			"name":"wheel-base",
			"translation":[
				7.100000381469727,
				2,
				-4
			]
		},
		{
			"extras":{
				"physics_2d_joints":{}
			},
			"mesh":5,
			"name":"Cube.010",
			"translation":[
				7.100000381469727,
				0,
				-4
			]
		},
		{
			"extras":{
				"physics_2d_joints":{
					"revolute_joints":[]
				}
			},
			"mesh":6,
			"name":"square",
			"translation":[
				5.800000190734863,
				-2.0999999046325684,
				-4
			]
		},
		{
			"extras":{
				"physics_2d_joints":{}
			},
			"mesh":7,
			"name":"circle--object",
			"rotation":[
				0.7071068286895752,
				0,
				0,
				0.7071068286895752
			],
			"translation":[
				9,
				-2,
				0
			]
		},
		{
			"extras":{
				"physics_2d_joints":{}
			},
			"mesh":8,
			"name":"polies-ob",
			"translation":[
				11.211775779724121,
				0.22589635848999023,
				-1.2771639823913574
			]
		},
		{
			"extras":{
				"physics_2d_joints":{
					"revolute_joints":[],
					"distance_joints":[],
					"prismatic_joints":[
						{
							"body_b":{
								"name":"wheel",
								"type":"Object"
							},
							"anchor_a":[
								-0.09999990463256836,
								-2.0
							],
							"local_axis":[
								0.7071067690849304,
								-0.7071067690849304
							]
						}
					]
				}
			},
			"mesh":9,
			"name":"base",
			"translation":[
				-0.01612067222595215,
				-2.47692608833313,
				0
			]
		}
	],
	"meshes":[
		{
			"extras":{
				"three_rigid_body_2d":{
					"enabled":1,
					"shapes":[
						{
							"shape_type":1
						}
					]
				}
			},
			"name":"Cube",
			"primitives":[
				{
					"attributes":{
						"POSITION":0,
						"TEXCOORD_0":1,
						"NORMAL":2
					},
					"indices":3
				}
			]
		},
		{
			"extras":{
				"three_rigid_body_2d":{
					"enabled":1,
					"shapes":[
						{
							"shape_type":1
						}
					],
					"body_type":2
				}
			},
			"name":"Cube.007",
			"primitives":[
				{
					"attributes":{
						"POSITION":4,
						"TEXCOORD_0":5,
						"NORMAL":6
					},
					"indices":3
				}
			]
		},
		{
			"extras":{
				"three_rigid_body_2d":{
					"enabled":1,
					"shapes":[
						{
							"shape_type":1
						}
					]
				}
			},
			"name":"Cube.008",
			"primitives":[
				{
					"attributes":{
						"POSITION":7,
						"TEXCOORD_0":8,
						"NORMAL":9
					},
					"indices":3
				}
			]
		},
		{
			"extras":{
				"three_rigid_body_2d":{
					"enabled":1,
					"shapes":[
						{
							"shape_type":1
						}
					],
					"body_type":2
				}
			},
			"name":"Cube.009",
			"primitives":[
				{
					"attributes":{
						"POSITION":10,
						"TEXCOORD_0":11,
						"NORMAL":12
					},
					"indices":3
				}
			]
		},
		{
			"extras":{
				"three_rigid_body_2d":{
					"enabled":1,
					"shapes":[
						{
							"shape_type":1
						}
					]
				}
			},
			"name":"Cube.010",
			"primitives":[
				{
					"attributes":{
						"POSITION":13,
						"TEXCOORD_0":14,
						"NORMAL":15
					},
					"indices":3
				}
			]
		},
		{
			"extras":{
				"three_rigid_body_2d":{
					"enabled":1,
					"shapes":[
						{
							"shape_type":1
						}
					],
					"body_type":2
				}
			},
			"name":"Cube.015",
			"primitives":[
				{
					"attributes":{
						"POSITION":16,
						"TEXCOORD_0":17,
						"NORMAL":18
					},
					"indices":3
				}
			]
		},
		{
			"extras":{
				"three_rigid_body_2d":{
					"enabled":1,
					"shapes":[
						{
							"shape_type":1
						}
					],
					"bullet":1,
					"fixed_rotation":1,
					"linear_damping":1.0,
					"angular_damping":1.0,
					"linear_velocity":[
						1.0,
						1.0
					],
					"angular_velocity":1.0
				}
			},
			"name":"square-body",
			"primitives":[
				{
					"attributes":{
						"POSITION":19,
						"TEXCOORD_0":20,
						"NORMAL":21
					},
					"indices":3
				}
			]
		},
		{
			"extras":{
				"three_rigid_body_2d":{
					"enabled":1,
					"shapes":[
						{
							"shape_type":2,
							"shape_radius":1.0
						}
					]
				}
			},
			"name":"circle-body",
			"primitives":[
				{
					"attributes":{
						"POSITION":22,
						"TEXCOORD_0":23,
						"NORMAL":24
					},
					"indices":25
				}
			]
		},
		{
			"extras":{
				"three_rigid_body_2d":{
					"enabled":1,
					"shapes":[
						{
							"shape_type":3,
							"shape_polygon_vertices":[
								{
									"pos":[
										0.39315104484558105,
										1.4528932571411133
									]
								},
								{
									"pos":[
										-1.6089258193969727,
										1.4365148544311523
									]
								},
								{
									"pos":[
										-1.5827815532684326,
										0.3900276720523834
									]
								},
								{
									"pos":[
										-0.3874990940093994,
										0.40878599882125854
									]
								},
								{
									"pos":[
										-0.372094988822937,
										-2.3125040531158447
									]
								},
								{
									"pos":[
										0.3648877739906311,
										-2.3620033264160156
									]
								},
								{
									"pos":[
										0.3744230270385742,
										-1.6599397659301758
									]
								},
								{
									"pos":[
										1.0080256462097168,
										-1.620948314666748
									]
								},
								{
									"pos":[
										1.0270943641662598,
										-1.1139185428619385
									]
								},
								{
									"pos":[
										0.40216097235679626,
										-1.1139696836471558
									]
								},
								{
									"pos":[
										0.4199315309524536,
										-0.41199541091918945
									]
								},
								{
									"pos":[
										1.2745625972747803,
										-0.3927125334739685
									]
								},
								{
									"pos":[
										1.2481355667114258,
										0.3869338035583496
									]
								},
								{
									"pos":[
										0.40134894847869873,
										0.4177338480949402
									]
								}
							]
						},
						{
							"shape_type":2,
							"shape_position":[
								2.4853498935699463,
								0.6178200244903564
							],
							"shape_radius":1.5,
							"mass":1.0,
							"friction":2.0,
							"restitution":2.0,
							"density":2.0,
							"filter_category_bits":2,
							"sensor":1,
							"filter_mask_bits":10,
							"filter_group_index":2
						},
						{
							"shape_type":1,
							"shape_position":[
								2.38706111907959,
								-1.5164929628372192
							],
							"shape_box_scale":[
								2.0,
								2.0
							],
							"shape_angle":-23.735509872436523,
							"friction":2.0,
							"restitution":2.0,
							"density":2.0,
							"filter_category_bits":2,
							"filter_mask_bits":10,
							"filter_group_index":2
						}
					]
				}
			},
			"name":"polies-body",
			"primitives":[
				{
					"attributes":{
						"POSITION":26,
						"TEXCOORD_0":27,
						"NORMAL":28
					},
					"indices":29
				}
			]
		},
		{
			"extras":{
				"three_rigid_body_2d":{
					"enabled":1,
					"shapes":[
						{
							"shape_type":1,
							"shape_box_scale":[
								2.0,
								2.0
							],
							"shape_angle":0.0,
							"friction":1.0
						}
					],
					"body_type":0
				}
			},
			"name":"Cube.004",
			"primitives":[
				{
					"attributes":{
						"POSITION":30,
						"TEXCOORD_0":31,
						"NORMAL":32
					},
					"indices":3
				}
			]
		}
	],
	"accessors":[
		{
			"bufferView":0,
			"componentType":5126,
			"count":24,
			"max":[
				0.5,
				0.5,
				0.5
			],
			"min":[
				-0.5,
				-0.5,
				-0.5
			],
			"type":"VEC3"
		},
		{
			"bufferView":1,
			"componentType":5126,
			"count":24,
			"type":"VEC2"
		},
		{
			"bufferView":2,
			"componentType":5126,
			"count":24,
			"type":"VEC3"
		},
		{
			"bufferView":3,
			"componentType":5123,
			"count":36,
			"type":"SCALAR"
		},
		{
			"bufferView":4,
			"componentType":5126,
			"count":24,
			"max":[
				0.5,
				0.5,
				0.5
			],
			"min":[
				-0.5,
				-0.5,
				-0.5
			],
			"type":"VEC3"
		},
		{
			"bufferView":5,
			"componentType":5126,
			"count":24,
			"type":"VEC2"
		},
		{
			"bufferView":6,
			"componentType":5126,
			"count":24,
			"type":"VEC3"
		},
		{
			"bufferView":7,
			"componentType":5126,
			"count":24,
			"max":[
				0.5,
				0.5,
				0.5
			],
			"min":[
				-0.5,
				-0.5,
				-0.5
			],
			"type":"VEC3"
		},
		{
			"bufferView":8,
			"componentType":5126,
			"count":24,
			"type":"VEC2"
		},
		{
			"bufferView":9,
			"componentType":5126,
			"count":24,
			"type":"VEC3"
		},
		{
			"bufferView":10,
			"componentType":5126,
			"count":24,
			"max":[
				0.5,
				0.5,
				0.5
			],
			"min":[
				-0.5,
				-0.5,
				-0.5
			],
			"type":"VEC3"
		},
		{
			"bufferView":11,
			"componentType":5126,
			"count":24,
			"type":"VEC2"
		},
		{
			"bufferView":12,
			"componentType":5126,
			"count":24,
			"type":"VEC3"
		},
		{
			"bufferView":13,
			"componentType":5126,
			"count":24,
			"max":[
				0.5,
				0.5,
				0.5
			],
			"min":[
				-0.5,
				-0.5,
				-0.5
			],
			"type":"VEC3"
		},
		{
			"bufferView":14,
			"componentType":5126,
			"count":24,
			"type":"VEC2"
		},
		{
			"bufferView":15,
			"componentType":5126,
			"count":24,
			"type":"VEC3"
		},
		{
			"bufferView":16,
			"componentType":5126,
			"count":24,
			"max":[
				0.5,
				0.5,
				0.5
			],
			"min":[
				-0.5,
				-0.5,
				-0.5
			],
			"type":"VEC3"
		},
		{
			"bufferView":17,
			"componentType":5126,
			"count":24,
			"type":"VEC2"
		},
		{
			"bufferView":18,
			"componentType":5126,
			"count":24,
			"type":"VEC3"
		},
		{
			"bufferView":19,
			"componentType":5126,
			"count":24,
			"max":[
				0.5,
				0.5,
				0.5
			],
			"min":[
				-0.5,
				-0.5,
				-0.5
			],
			"type":"VEC3"
		},
		{
			"bufferView":20,
			"componentType":5126,
			"count":24,
			"type":"VEC2"
		},
		{
			"bufferView":21,
			"componentType":5126,
			"count":24,
			"type":"VEC3"
		},
		{
			"bufferView":22,
			"componentType":5126,
			"count":192,
			"max":[
				1,
				1,
				1
			],
			"min":[
				-1,
				-1,
				-1
			],
			"type":"VEC3"
		},
		{
			"bufferView":23,
			"componentType":5126,
			"count":192,
			"type":"VEC2"
		},
		{
			"bufferView":24,
			"componentType":5126,
			"count":192,
			"type":"VEC3"
		},
		{
			"bufferView":25,
			"componentType":5123,
			"count":372,
			"type":"SCALAR"
		},
		{
			"bufferView":26,
			"componentType":5126,
			"count":92,
			"max":[
				1.2808566093444824,
				1.453808069229126,
				0.3999999761581421
			],
			"min":[
				-1.6028364896774292,
				-2.352388858795166,
				-0.3999999761581421
			],
			"type":"VEC3"
		},
		{
			"bufferView":27,
			"componentType":5126,
			"count":92,
			"type":"VEC2"
		},
		{
			"bufferView":28,
			"componentType":5126,
			"count":92,
			"type":"VEC3"
		},
		{
			"bufferView":29,
			"componentType":5123,
			"count":180,
			"type":"SCALAR"
		},
		{
			"bufferView":30,
			"componentType":5126,
			"count":24,
			"max":[
				1,
				1,
				1
			],
			"min":[
				-1,
				-1,
				-1
			],
			"type":"VEC3"
		},
		{
			"bufferView":31,
			"componentType":5126,
			"count":24,
			"type":"VEC2"
		},
		{
			"bufferView":32,
			"componentType":5126,
			"count":24,
			"type":"VEC3"
		}
	],
	"bufferViews":[
		{
			"buffer":0,
			"byteLength":288,
			"byteOffset":0,
			"target":34962
		},
		{
			"buffer":0,
			"byteLength":192,
			"byteOffset":288,
			"target":34962
		},
		{
			"buffer":0,
			"byteLength":288,
			"byteOffset":480,
			"target":34962
		},
		{
			"buffer":0,
			"byteLength":72,
			"byteOffset":768,
			"target":34963
		},
		{
			"buffer":0,
			"byteLength":288,
			"byteOffset":840,
			"target":34962
		},
		{
			"buffer":0,
			"byteLength":192,
			"byteOffset":1128,
			"target":34962
		},
		{
			"buffer":0,
			"byteLength":288,
			"byteOffset":1320,
			"target":34962
		},
		{
			"buffer":0,
			"byteLength":288,
			"byteOffset":1608,
			"target":34962
		},
		{
			"buffer":0,
			"byteLength":192,
			"byteOffset":1896,
			"target":34962
		},
		{
			"buffer":0,
			"byteLength":288,
			"byteOffset":2088,
			"target":34962
		},
		{
			"buffer":0,
			"byteLength":288,
			"byteOffset":2376,
			"target":34962
		},
		{
			"buffer":0,
			"byteLength":192,
			"byteOffset":2664,
			"target":34962
		},
		{
			"buffer":0,
			"byteLength":288,
			"byteOffset":2856,
			"target":34962
		},
		{
			"buffer":0,
			"byteLength":288,
			"byteOffset":3144,
			"target":34962
		},
		{
			"buffer":0,
			"byteLength":192,
			"byteOffset":3432,
			"target":34962
		},
		{
			"buffer":0,
			"byteLength":288,
			"byteOffset":3624,
			"target":34962
		},
		{
			"buffer":0,
			"byteLength":288,
			"byteOffset":3912,
			"target":34962
		},
		{
			"buffer":0,
			"byteLength":192,
			"byteOffset":4200,
			"target":34962
		},
		{
			"buffer":0,
			"byteLength":288,
			"byteOffset":4392,
			"target":34962
		},
		{
			"buffer":0,
			"byteLength":288,
			"byteOffset":4680,
			"target":34962
		},
		{
			"buffer":0,
			"byteLength":192,
			"byteOffset":4968,
			"target":34962
		},
		{
			"buffer":0,
			"byteLength":288,
			"byteOffset":5160,
			"target":34962
		},
		{
			"buffer":0,
			"byteLength":2304,
			"byteOffset":5448,
			"target":34962
		},
		{
			"buffer":0,
			"byteLength":1536,
			"byteOffset":7752,
			"target":34962
		},
		{
			"buffer":0,
			"byteLength":2304,
			"byteOffset":9288,
			"target":34962
		},
		{
			"buffer":0,
			"byteLength":744,
			"byteOffset":11592,
			"target":34963
		},
		{
			"buffer":0,
			"byteLength":1104,
			"byteOffset":12336,
			"target":34962
		},
		{
			"buffer":0,
			"byteLength":736,
			"byteOffset":13440,
			"target":34962
		},
		{
			"buffer":0,
			"byteLength":1104,
			"byteOffset":14176,
			"target":34962
		},
		{
			"buffer":0,
			"byteLength":360,
			"byteOffset":15280,
			"target":34963
		},
		{
			"buffer":0,
			"byteLength":288,
			"byteOffset":15640,
			"target":34962
		},
		{
			"buffer":0,
			"byteLength":192,
			"byteOffset":15928,
			"target":34962
		},
		{
			"buffer":0,
			"byteLength":288,
			"byteOffset":16120,
			"target":34962
		}
	],
	"buffers":[
		{
			"byteLength":16408,
			"uri":"physics-test.bin"
		}
	]
}
