{
	"asset":{
		"generator":"Khronos glTF Blender I/O v3.5.30",
		"version":"2.0"
	},
	"scene":0,
	"scenes":[
		{
			"extras":{
				"three_physics":{
					"physics_mode":1,
					"physics_2d_display_shape":0,
					"physics_2d_orientation":2,
					"physics_2d_enabled":1,
					"physics_2d_joints":{
						"revolute_joints":[],
						"distance_joints":[
							{
								"body_a":null,
								"body_b":null,
								"length":2.0
							},
							{
								"body_a":null,
								"body_b":null,
								"length":2.0,
								"anchor_a":[
									-0.019504070281982422,
									0.0
								]
							}
						],
						"wheel_joints":[
							{
								"body_a":null,
								"body_b":null,
								"local_axis":[
									6.123234262925839e-17,
									1.0
								]
							},
							{
								"body_a":null,
								"body_b":null,
								"enable_motor":1,
								"frequency":0.10000000149011612,
								"motor_speed":10.0,
								"max_motor_torque":10.0
							},
							{
								"body_a":null,
								"body_b":null,
								"anchor_a":[
									3.0,
									0.0
								]
							}
						],
						"rope_joints":[],
						"prismatic_joints":[
							{
								"body_a":null,
								"body_b":null,
								"local_axis":[
									0.9788045287132263,
									-0.20479679107666016
								],
								"anchor_a":[
									0.02456974983215332,
									2.2992196083068848
								],
								"enable_limit":1,
								"lower":0.0,
								"upper":9.699999809265137,
								"anchor_b":[
									-4.777403831481934,
									1.3597142696380615
								]
							}
						]
					},
					"physics_2d_viewport_settings":{
						"display_shape_gizmos":0,
						"display_shape":1,
						"display_joint_gizmos":1,
						"display_joint":1
					},
					"physics_2d_gravity":[
						0.0,
						-1.0
					]
				}
			},
			"name":"Scene",
			"nodes":[
				0,
				1,
				2,
				3
			]
		}
	],
	"nodes":[
		{
			"extras":{
				"physics_2d_joints":{}
			},
			"mesh":0,
			"name":"Cube.001",
			"rotation":[
				0,
				-0.08715575188398361,
				0,
				0.9961947202682495
			],
			"translation":[
				0.019999999552965164,
				0,
				0
			]
		},
		{
			"extras":{
				"physics_2d_joints":{
					"revolute_joints":[
						{
							"body_b":{
								"name":"wheel",
								"type":"Object"
							},
							"anchor_a":[
								-0.011775970458984375,
								-2.0771639347076416
							]
						},
						{
							"body_b":{
								"name":"wheel-2",
								"type":"Object"
							},
							"anchor_a":[
								2.1882240772247314,
								-0.0771641731262207
							]
						}
					]
				}
			},
			"mesh":1,
			"name":"base",
			"translation":[
				0.011775970458984375,
				0.22589635848999023,
				-5.277163982391357
			]
		},
		{
			"extras":{
				"physics_2d_joints":{}
			},
			"mesh":2,
			"name":"wheel",
			"translation":[
				0,
				0,
				-3.200000047683716
			]
		},
		{
			"extras":{
				"physics_2d_joints":{}
			},
			"mesh":2,
			"name":"wheel-2",
			"translation":[
				2.200000047683716,
				0,
				-5.199999809265137
			]
		}
	],
	"meshes":[
		{
			"extras":{
				"three_rigid_body_2d":{
					"enabled":1,
					"shapes":[
						{
							"shape_type":1,
							"shape_box_scale":[
								20.800485610961914,
								1.0
							]
						}
					]
				}
			},
			"name":"Cube",
			"primitives":[
				{
					"attributes":{
						"POSITION":0,
						"TEXCOORD_0":1,
						"NORMAL":2
					},
					"indices":3
				}
			]
		},
		{
			"extras":{
				"three_rigid_body_2d":{
					"enabled":1,
					"shapes":[
						{
							"shape_type":1,
							"shape_box_scale":[
								2.0,
								2.0
							],
							"shape_angle":0.0
						}
					],
					"body_type":2
				}
			},
			"name":"Cube.004",
			"primitives":[
				{
					"attributes":{
						"POSITION":4,
						"TEXCOORD_0":5,
						"NORMAL":6
					},
					"indices":3
				}
			]
		},
		{
			"extras":{
				"three_rigid_body_2d":{
					"enabled":1,
					"shapes":[
						{
							"shape_type":2,
							"shape_radius":1.0
						}
					],
					"body_type":2
				}
			},
			"name":"Cylinder.001",
			"primitives":[
				{
					"attributes":{
						"POSITION":7,
						"TEXCOORD_0":8,
						"NORMAL":9
					},
					"indices":10
				}
			]
		}
	],
	"accessors":[
		{
			"bufferView":0,
			"componentType":5126,
			"count":24,
			"max":[
				10.391616821289062,
				0.5,
				0.5
			],
			"min":[
				-10.391616821289062,
				-0.5,
				-0.5
			],
			"type":"VEC3"
		},
		{
			"bufferView":1,
			"componentType":5126,
			"count":24,
			"type":"VEC2"
		},
		{
			"bufferView":2,
			"componentType":5126,
			"count":24,
			"type":"VEC3"
		},
		{
			"bufferView":3,
			"componentType":5123,
			"count":36,
			"type":"SCALAR"
		},
		{
			"bufferView":4,
			"componentType":5126,
			"count":24,
			"max":[
				1,
				1,
				1
			],
			"min":[
				-1,
				-1,
				-1
			],
			"type":"VEC3"
		},
		{
			"bufferView":5,
			"componentType":5126,
			"count":24,
			"type":"VEC2"
		},
		{
			"bufferView":6,
			"componentType":5126,
			"count":24,
			"type":"VEC3"
		},
		{
			"bufferView":7,
			"componentType":5126,
			"count":192,
			"max":[
				1,
				1,
				1
			],
			"min":[
				-1,
				-1,
				-1
			],
			"type":"VEC3"
		},
		{
			"bufferView":8,
			"componentType":5126,
			"count":192,
			"type":"VEC2"
		},
		{
			"bufferView":9,
			"componentType":5126,
			"count":192,
			"type":"VEC3"
		},
		{
			"bufferView":10,
			"componentType":5123,
			"count":372,
			"type":"SCALAR"
		}
	],
	"bufferViews":[
		{
			"buffer":0,
			"byteLength":288,
			"byteOffset":0,
			"target":34962
		},
		{
			"buffer":0,
			"byteLength":192,
			"byteOffset":288,
			"target":34962
		},
		{
			"buffer":0,
			"byteLength":288,
			"byteOffset":480,
			"target":34962
		},
		{
			"buffer":0,
			"byteLength":72,
			"byteOffset":768,
			"target":34963
		},
		{
			"buffer":0,
			"byteLength":288,
			"byteOffset":840,
			"target":34962
		},
		{
			"buffer":0,
			"byteLength":192,
			"byteOffset":1128,
			"target":34962
		},
		{
			"buffer":0,
			"byteLength":288,
			"byteOffset":1320,
			"target":34962
		},
		{
			"buffer":0,
			"byteLength":2304,
			"byteOffset":1608,
			"target":34962
		},
		{
			"buffer":0,
			"byteLength":1536,
			"byteOffset":3912,
			"target":34962
		},
		{
			"buffer":0,
			"byteLength":2304,
			"byteOffset":5448,
			"target":34962
		},
		{
			"buffer":0,
			"byteLength":744,
			"byteOffset":7752,
			"target":34963
		}
	],
	"buffers":[
		{
			"byteLength":8496,
			"uri":"physics.bin"
		}
	]
}
